<svg width="30" height="30" viewBox="0 0 30 30" fill="none" xmlns="http://www.w3.org/2000/svg">
<path d="M10.8838 4.11625C10.3963 4.60375 10.4226 5.3925 10.7113 6.02C11.0129 6.67656 11.1063 7.40973 10.9788 8.12092C10.8513 8.83211 10.5091 9.48721 9.99817 9.99811C9.48726 10.509 8.83217 10.8512 8.12098 10.9787C7.40979 11.1062 6.67662 11.0129 6.02006 10.7113C5.39256 10.4238 4.60381 10.3962 4.11631 10.8837L3.38381 11.6163C3.14947 11.8507 3.01782 12.1685 3.01782 12.5C3.01782 12.8315 3.14947 13.1493 3.38381 13.3837L16.6163 26.6162C16.8507 26.8506 17.1686 26.9822 17.5001 26.9822C17.8315 26.9822 18.1494 26.8506 18.3838 26.6162L19.1163 25.8838C19.6038 25.3963 19.5776 24.6075 19.2888 23.98C18.9872 23.3234 18.8939 22.5903 19.0213 21.8791C19.1488 21.1679 19.491 20.5128 20.0019 20.0019C20.5128 19.491 21.1679 19.1488 21.8791 19.0213C22.5903 18.8938 23.3235 18.9871 23.9801 19.2888C24.6076 19.5763 25.3963 19.6037 25.8838 19.1162L26.6163 18.3837C26.8506 18.1493 26.9823 17.8315 26.9823 17.5C26.9823 17.1685 26.8506 16.8507 26.6163 16.6162L13.3838 3.38375C13.1494 3.14941 12.8315 3.01777 12.5001 3.01777C12.1686 3.01777 11.8507 3.14941 11.6163 3.38375L10.8838 4.11625V4.11625Z" stroke="#4D4D4D" stroke-width="2.5" stroke-linecap="round" stroke-linejoin="round"/>
</svg>
