<svg width="23" height="23" viewBox="0 0 23 23" fill="none" xmlns="http://www.w3.org/2000/svg">
<path d="M8.21757 4.49708C8.21757 3.5696 8.5634 2.6801 9.17897 2.02427C9.79455 1.36844 10.6294 1 11.5 1C12.3706 1 13.2055 1.36844 13.821 2.02427C14.4366 2.6801 14.7824 3.5696 14.7824 4.49708C14.7824 5.42457 14.4366 6.31406 13.821 6.96989C13.2055 7.62572 12.3706 7.99417 11.5 7.99417C10.6294 7.99417 9.79455 7.62572 9.17897 6.96989C8.5634 6.31406 8.21757 5.42457 8.21757 4.49708ZM11.5 2.75029C11.2847 2.75029 11.0715 2.79547 10.8726 2.88326C10.6736 2.97104 10.4929 3.09971 10.3406 3.26191C10.1884 3.42412 10.0676 3.61668 9.98523 3.82861C9.90284 4.04055 9.86043 4.26769 9.86043 4.49708C9.86043 4.72647 9.90284 4.95362 9.98523 5.16555C10.0676 5.37748 10.1884 5.57005 10.3406 5.73225C10.4929 5.89446 10.6736 6.02312 10.8726 6.11091C11.0715 6.19869 11.2847 6.24387 11.5 6.24387C11.9348 6.24387 12.3519 6.05984 12.6594 5.73225C12.9668 5.40466 13.1396 4.96036 13.1396 4.49708C13.1396 4.0338 12.9668 3.5895 12.6594 3.26191C12.3519 2.93433 11.9348 2.75029 11.5 2.75029ZM16.4286 5.37223C16.4286 5.02745 16.4923 4.68605 16.6162 4.36752C16.74 4.04898 16.9215 3.75956 17.1503 3.51576C17.3792 3.27197 17.6508 3.07858 17.9498 2.94664C18.2488 2.8147 18.5692 2.74679 18.8929 2.74679C19.2165 2.74679 19.5369 2.8147 19.8359 2.94664C20.1349 3.07858 20.4065 3.27197 20.6354 3.51576C20.8642 3.75956 21.0457 4.04898 21.1696 4.36752C21.2934 4.68605 21.3571 5.02745 21.3571 5.37223C21.3571 6.06854 21.0975 6.73633 20.6354 7.22869C20.1732 7.72106 19.5464 7.99767 18.8929 7.99767C18.2393 7.99767 17.6125 7.72106 17.1503 7.22869C16.6882 6.73633 16.4286 6.06854 16.4286 5.37223ZM18.8929 4.49708C18.675 4.49708 18.4661 4.58929 18.312 4.75341C18.158 4.91753 18.0714 5.14013 18.0714 5.37223C18.0714 5.60433 18.158 5.82693 18.312 5.99105C18.4661 6.15517 18.675 6.24737 18.8929 6.24737C19.1107 6.24737 19.3196 6.15517 19.4737 5.99105C19.6277 5.82693 19.7143 5.60433 19.7143 5.37223C19.7143 5.14013 19.6277 4.91753 19.4737 4.75341C19.3196 4.58929 19.1107 4.49708 18.8929 4.49708ZM4.10714 2.74679C3.45357 2.74679 2.82677 3.0234 2.36463 3.51576C1.90249 4.00813 1.64286 4.67592 1.64286 5.37223C1.64286 6.06854 1.90249 6.73633 2.36463 7.22869C2.82677 7.72106 3.45357 7.99767 4.10714 7.99767C4.76071 7.99767 5.38751 7.72106 5.84966 7.22869C6.3118 6.73633 6.57143 6.06854 6.57143 5.37223C6.57143 4.67592 6.3118 4.00813 5.84966 3.51576C5.38751 3.0234 4.76071 2.74679 4.10714 2.74679ZM3.28571 5.37223C3.28571 5.14013 3.37226 4.91753 3.52631 4.75341C3.68035 4.58929 3.88929 4.49708 4.10714 4.49708C4.325 4.49708 4.53393 4.58929 4.68798 4.75341C4.84203 4.91753 4.92857 5.14013 4.92857 5.37223C4.92857 5.60433 4.84203 5.82693 4.68798 5.99105C4.53393 6.15517 4.325 6.24737 4.10714 6.24737C3.88929 6.24737 3.68035 6.15517 3.52631 5.99105C3.37226 5.82693 3.28571 5.60433 3.28571 5.37223ZM5.36886 9.74796C5.07972 10.2798 4.92782 10.8837 4.92857 11.4983H1.64286V15.874C1.64272 16.3093 1.74421 16.7379 1.93819 17.1211C2.13216 17.5043 2.41254 17.8301 2.75407 18.0691C3.0956 18.3082 3.48756 18.453 3.89468 18.4905C4.3018 18.528 4.71129 18.4571 5.08629 18.2841C5.20786 18.8635 5.39843 19.4166 5.64486 19.9329C5.02134 20.2011 4.34554 20.3021 3.67681 20.2271C3.00808 20.152 2.36688 19.9032 1.80951 19.5024C1.25215 19.1016 0.795668 18.5612 0.480163 17.9285C0.164657 17.2959 -0.000223507 16.5904 2.27393e-07 15.874V11.4983C2.27393e-07 11.034 0.173086 10.5889 0.481182 10.2606C0.789277 9.93236 1.20714 9.74796 1.64286 9.74796H5.36886ZM17.3551 19.9329C17.9787 20.2011 18.6545 20.3021 19.3232 20.2271C19.9919 20.152 20.6331 19.9032 21.1905 19.5024C21.7479 19.1016 22.2043 18.5612 22.5198 17.9285C22.8353 17.2959 23.0002 16.5904 23 15.874V11.4983C23 11.034 22.8269 10.5889 22.5188 10.2606C22.2107 9.93236 21.7929 9.74796 21.3571 9.74796H17.6311C17.9104 10.2625 18.0714 10.8594 18.0714 11.4983H21.3571V15.874C21.3573 16.3093 21.2558 16.7379 21.0618 17.1211C20.8678 17.5043 20.5875 17.8301 20.2459 18.0691C19.9044 18.3082 19.5124 18.453 19.1053 18.4905C18.6982 18.528 18.2887 18.4571 17.9137 18.2841C17.7905 18.8635 17.6016 19.4166 17.3551 19.9329ZM8.21429 9.74621C7.77857 9.74621 7.36071 9.93061 7.05261 10.2589C6.74452 10.5871 6.57143 11.0323 6.57143 11.4965V16.7491C6.57143 18.1417 7.09069 19.4773 8.01497 20.4621C8.93926 21.4468 10.1929 22 11.5 22C12.8071 22 14.0607 21.4468 14.985 20.4621C15.9093 19.4773 16.4286 18.1417 16.4286 16.7491V11.4983C16.4286 11.034 16.2555 10.5889 15.9474 10.2606C15.6393 9.93236 15.2214 9.74796 14.7857 9.74796H8.21429V9.74621ZM8.21429 11.4965H14.7857V16.7491C14.7857 17.6775 14.4395 18.5679 13.8234 19.2244C13.2072 19.8809 12.3714 20.2497 11.5 20.2497C10.6286 20.2497 9.79284 19.8809 9.17665 19.2244C8.56046 18.5679 8.21429 17.6775 8.21429 16.7491V11.4983V11.4965Z" fill="#4D4D4D"/>
</svg>
