<svg width="23" height="23" viewBox="0 0 23 23" fill="none" xmlns="http://www.w3.org/2000/svg">
<path d="M1.79688 17.6094H10.7812V20.8438H7.1875V22.2812H15.8125V20.8438H12.2188V17.6094H21.2031C21.489 17.609 21.763 17.4953 21.9651 17.2932C22.1672 17.0911 22.2809 16.8171 22.2812 16.5312V3.23438C22.2809 2.94854 22.1672 2.67451 21.9651 2.47239C21.763 2.27028 21.489 2.15658 21.2031 2.15625H1.79688C1.51104 2.15658 1.23701 2.27028 1.03489 2.47239C0.832778 2.67451 0.719083 2.94854 0.71875 3.23438V16.5312C0.719083 16.8171 0.832778 17.0911 1.03489 17.2932C1.23701 17.4953 1.51104 17.609 1.79688 17.6094ZM2.15625 3.59375H20.8438V16.1719H2.15625V3.59375Z" fill="#4D4D4D"/>
</svg>
