<svg width="29" height="29" viewBox="0 0 29 29" fill="none" xmlns="http://www.w3.org/2000/svg">
<path d="M14.5 1.8125C7.49356 1.8125 1.8125 7.49356 1.8125 14.5C1.8125 21.5064 7.49356 27.1875 14.5 27.1875C21.5064 27.1875 27.1875 21.5064 27.1875 14.5C27.1875 7.49356 21.5064 1.8125 14.5 1.8125ZM19.1842 19.3201L17.315 19.3116L14.5 15.9557L11.6878 19.3088L9.81582 19.3173C9.69121 19.3173 9.58926 19.2182 9.58926 19.0907C9.58926 19.0369 9.60908 18.9859 9.64307 18.9435L13.3275 14.5538L9.64307 10.167C9.60885 10.1255 9.58986 10.0735 9.58926 10.0197C9.58926 9.89512 9.69121 9.79316 9.81582 9.79316L11.6878 9.80166L14.5 13.1576L17.3122 9.80449L19.1813 9.796C19.306 9.796 19.4079 9.89512 19.4079 10.0226C19.4079 10.0764 19.3881 10.1273 19.3541 10.1698L15.6753 14.5566L19.3569 18.9463C19.3909 18.9888 19.4107 19.0397 19.4107 19.0936C19.4107 19.2182 19.3088 19.3201 19.1842 19.3201Z" fill="white"/>
</svg>
