<svg width="50" height="45" viewBox="0 0 50 45" fill="none" xmlns="http://www.w3.org/2000/svg">
<rect width="50" height="45" fill="#FAFAFA"/>
<path d="M23.9375 4.5625C14.0318 4.5625 6 12.5943 6 22.5C6 32.4057 14.0318 40.4375 23.9375 40.4375C33.8432 40.4375 41.875 32.4057 41.875 22.5C41.875 12.5943 33.8432 4.5625 23.9375 4.5625ZM30.56 29.3146L27.9174 29.3026L23.9375 24.558L19.9616 29.2986L17.315 29.3106C17.1389 29.3106 16.9947 29.1705 16.9947 28.9903C16.9947 28.9143 17.0228 28.8422 17.0708 28.7821L22.2799 22.5761L17.0708 16.374C17.0224 16.3153 16.9956 16.2419 16.9947 16.1658C16.9947 15.9896 17.1389 15.8455 17.315 15.8455L19.9616 15.8575L23.9375 20.6021L27.9134 15.8615L30.556 15.8495C30.7321 15.8495 30.8763 15.9896 30.8763 16.1698C30.8763 16.2459 30.8482 16.318 30.8002 16.378L25.5991 22.5801L30.8042 28.7861C30.8522 28.8462 30.8803 28.9183 30.8803 28.9943C30.8803 29.1705 30.7361 29.3146 30.56 29.3146Z" fill="#D8D8D8"/>
</svg>
