<svg width="27" height="27" viewBox="0 0 27 27" fill="none" xmlns="http://www.w3.org/2000/svg">
<path d="M24.1875 6.75C24.1875 7.02555 24.0863 7.2915 23.9032 7.49742C23.7201 7.70333 23.4678 7.83489 23.1941 7.86712L23.0625 7.875H22.1119L20.727 21.96C20.6516 22.7243 20.2946 23.4332 19.7255 23.9488C19.1564 24.4645 18.4159 24.7501 17.6479 24.75H9.35213C8.58414 24.7501 7.84358 24.4645 7.27448 23.9488C6.70537 23.4332 6.3484 22.7243 6.273 21.96L4.88812 7.875H3.9375C3.63913 7.875 3.35298 7.75647 3.142 7.54549C2.93103 7.33452 2.8125 7.04837 2.8125 6.75C2.8125 6.45163 2.93103 6.16548 3.142 5.9545C3.35298 5.74353 3.63913 5.625 3.9375 5.625H9.5625C9.5625 5.10792 9.66435 4.5959 9.86222 4.11818C10.0601 3.64046 10.3501 3.2064 10.7158 2.84077C11.0814 2.47514 11.5155 2.1851 11.9932 1.98722C12.4709 1.78935 12.9829 1.6875 13.5 1.6875C14.0171 1.6875 14.5291 1.78935 15.0068 1.98722C15.4845 2.1851 15.9186 2.47514 16.2842 2.84077C16.6499 3.2064 16.9399 3.64046 17.1378 4.11818C17.3357 4.5959 17.4375 5.10792 17.4375 5.625H23.0625C23.3609 5.625 23.647 5.74353 23.858 5.9545C24.069 6.16548 24.1875 6.45163 24.1875 6.75ZM16.0313 10.4062C15.8274 10.4063 15.6304 10.4801 15.4767 10.6141C15.323 10.7481 15.2231 10.9333 15.1954 11.1352L15.1875 11.25V19.125L15.1954 19.2397C15.2232 19.4417 15.3231 19.6268 15.4768 19.7607C15.6304 19.8947 15.8274 19.9685 16.0313 19.9685C16.2351 19.9685 16.4321 19.8947 16.5857 19.7607C16.7394 19.6268 16.8393 19.4417 16.8671 19.2397L16.875 19.125V11.25L16.8671 11.1352C16.8394 10.9333 16.7395 10.7481 16.5858 10.6141C16.4321 10.4801 16.2351 10.4063 16.0313 10.4062ZM10.9688 10.4062C10.7649 10.4063 10.5679 10.4801 10.4142 10.6141C10.2605 10.7481 10.1606 10.9333 10.1329 11.1352L10.125 11.25V19.125L10.1329 19.2397C10.1607 19.4417 10.2606 19.6268 10.4143 19.7607C10.5679 19.8947 10.7649 19.9685 10.9688 19.9685C11.1726 19.9685 11.3696 19.8947 11.5232 19.7607C11.6769 19.6268 11.7768 19.4417 11.8046 19.2397L11.8125 19.125V11.25L11.8046 11.1352C11.7769 10.9333 11.677 10.7481 11.5233 10.6141C11.3696 10.4801 11.1726 10.4063 10.9688 10.4062ZM13.5 3.9375C13.0524 3.9375 12.6232 4.11529 12.3068 4.43176C11.9903 4.74822 11.8125 5.17745 11.8125 5.625H15.1875C15.1875 5.17745 15.0097 4.74822 14.6932 4.43176C14.3768 4.11529 13.9476 3.9375 13.5 3.9375Z" fill="white"/>
</svg>
