<svg width="19" height="19" viewBox="0 0 19 19" fill="none" xmlns="http://www.w3.org/2000/svg">
<path d="M5.54199 13.4686L9.03562 13.4567L16.661 5.90425C16.9602 5.605 17.1249 5.20758 17.1249 4.78483C17.1249 4.36208 16.9602 3.96466 16.661 3.66541L15.4054 2.40983C14.8069 1.81133 13.7627 1.8145 13.1689 2.40745L5.54199 9.96154V13.4686V13.4686ZM14.286 3.52925L15.5439 4.78246L14.2796 6.03487L13.024 4.78008L14.286 3.52925ZM7.12533 10.6218L11.8991 5.89316L13.1547 7.14875L8.3817 11.8758L7.12533 11.8797V10.6218Z" fill="#757575"/>
<path d="M3.95833 16.625H15.0417C15.9149 16.625 16.625 15.9149 16.625 15.0417V8.1795L15.0417 9.76283V15.0417H6.45842C6.43783 15.0417 6.41646 15.0496 6.39588 15.0496C6.36975 15.0496 6.34363 15.0425 6.31671 15.0417H3.95833V3.95833H9.37888L10.9622 2.375H3.95833C3.08512 2.375 2.375 3.08512 2.375 3.95833V15.0417C2.375 15.9149 3.08512 16.625 3.95833 16.625Z" fill="#757575"/>
</svg>
