<svg width="55" height="55" viewBox="0 0 55 55" fill="none" xmlns="http://www.w3.org/2000/svg">
<path fill-rule="evenodd" clip-rule="evenodd" d="M2.29175 6.50384C2.29175 5.38672 2.73552 4.31536 3.52544 3.52544C4.31536 2.73553 5.38672 2.29175 6.50383 2.29175H48.4917C49.0453 2.29085 49.5937 2.39915 50.1054 2.61045C50.6171 2.82175 51.0821 3.1319 51.4738 3.52315C51.8654 3.9144 52.1761 4.37906 52.388 4.89053C52.5998 5.402 52.7087 5.95023 52.7084 6.50384V48.4918C52.709 49.0455 52.6004 49.5939 52.3889 50.1056C52.1773 50.6173 51.867 51.0823 51.4755 51.4739C51.0841 51.8656 50.6193 52.1762 50.1077 52.388C49.5961 52.5999 49.0477 52.7087 48.494 52.7084H6.50383C5.9505 52.7084 5.40259 52.5994 4.89141 52.3876C4.38022 52.1758 3.91579 51.8653 3.52463 51.4739C3.13347 51.0826 2.82326 50.6179 2.61172 50.1066C2.40017 49.5954 2.29145 49.0474 2.29175 48.494V6.50384ZM22.2476 21.5143H29.0745V24.9426C30.0599 22.9718 32.5807 21.198 36.3688 21.198C43.6311 21.198 45.3522 25.1236 45.3522 32.3263V45.6684H38.0028V33.9672C38.0028 29.8651 37.0174 27.5505 34.5149 27.5505C31.043 27.5505 29.5992 30.0461 29.5992 33.9672V45.6684H22.2476V21.5143ZM9.64341 45.3545H16.9951V21.198H9.64341V45.3522V45.3545ZM18.047 13.3193C18.0608 13.9487 17.9488 14.5746 17.7175 15.1602C17.4862 15.7458 17.1403 16.2793 16.7 16.7293C16.2597 17.1794 15.734 17.537 15.1536 17.7811C14.5733 18.0253 13.95 18.151 13.3204 18.151C12.6908 18.151 12.0675 18.0253 11.4872 17.7811C10.9068 17.537 10.3811 17.1794 9.9408 16.7293C9.50053 16.2793 9.15459 15.7458 8.92328 15.1602C8.69198 14.5746 8.57997 13.9487 8.59383 13.3193C8.62104 12.0837 9.13096 10.9079 10.0144 10.0437C10.8978 9.17954 12.0846 8.69563 13.3204 8.69563C14.5562 8.69563 15.7429 9.17954 16.6264 10.0437C17.5098 10.9079 18.0197 12.0837 18.047 13.3193V13.3193Z" fill="#252525"/>
</svg>
