<svg width="55" height="55" viewBox="0 0 55 55" fill="none" xmlns="http://www.w3.org/2000/svg">
<g clip-path="url(#clip0_24_20)">
<path d="M16.8223 41.3466L13.5029 37.9306C12.5898 37.1142 12.2676 35.7821 12.5791 34.5683C12.9014 33.6122 13.3311 32.3661 13.9434 30.9374H2.57813C1.65215 30.9374 0.796427 30.4433 0.33795 29.6376C0.112689 29.2426 -0.00388274 28.7949 9.86712e-05 28.3401C0.00408008 27.8854 0.128473 27.4398 0.360616 27.0488L5.99736 17.5419C7.38955 15.1894 9.91826 13.6532 12.6543 13.6532H21.4844C21.7422 13.3202 22 12.9228 22.2578 12.5361C31.0557 -0.437282 44.1611 -0.874704 51.9814 0.566575C53.2383 0.79635 54.2051 1.76487 54.4307 3.01418C55.8701 10.8388 55.4404 23.9443 42.4639 32.7421C42.0879 32.9999 41.583 33.2577 41.25 33.4189V42.3456C41.25 45.0849 39.8106 47.6093 37.458 49.0058L27.9512 54.6347C27.1563 55.1073 26.168 55.1181 25.3623 54.6669C24.5566 54.205 24.0625 53.3456 24.0625 52.4218V40.9062C22.5479 41.4218 21.2266 41.8622 20.2275 42.1845C19.0244 42.5712 17.7139 42.2382 16.8223 41.3466V41.3466ZM41.25 17.9501C43.624 17.9501 45.5469 16.1239 45.5469 13.6532C45.5469 11.3759 43.624 9.35637 41.25 9.35637C38.876 9.35637 36.9531 11.3759 36.9531 13.6532C36.9531 16.1239 38.876 17.9501 41.25 17.9501Z" fill="#252525"/>
</g>
<defs>
<clipPath id="clip0_24_20">
<rect width="55" height="55" fill="white"/>
</clipPath>
</defs>
</svg>
