<svg width="55" height="55" viewBox="0 0 55 55" fill="none" xmlns="http://www.w3.org/2000/svg">
<path d="M0.00170898 6.19717V48.2863L32.3341 55V0L0.00170898 6.19717ZM16.2909 37.0303C6.01258 36.3738 7.07118 18.0267 16.5309 17.8809C26.6649 18.5442 25.6707 36.8838 16.2909 37.0303ZM16.4391 21.4732C11.0242 21.8455 11.2666 33.3333 16.3556 33.4255C21.7472 33.0814 21.4305 21.5625 16.4391 21.4732ZM37.8432 28.79C38.3313 29.1454 38.9195 28.79 38.9195 28.79C38.3333 29.1454 54.9335 18.2259 54.9335 18.2259V37.9991C54.9335 40.1515 53.5421 41.0543 51.9776 41.0543H34.3763L34.3774 26.4331L37.8432 28.79ZM34.3782 11.6611V22.4194L38.1747 24.7866C38.2748 24.8156 38.4918 24.8177 38.5919 24.7866L54.9312 13.8775C54.9312 12.5865 53.7151 11.6611 53.0288 11.6611H34.3782Z" fill="#252525"/>
</svg>
