<svg width="55" height="51" viewBox="0 0 55 51" fill="none" xmlns="http://www.w3.org/2000/svg">
<path fill-rule="evenodd" clip-rule="evenodd" d="M27.5 0C12.3063 0 0 11.6334 0 25.9963C0 37.4997 7.87188 47.2158 18.8031 50.6603C20.1781 50.8878 20.6938 50.1079 20.6938 49.4255C20.6938 48.8081 20.6594 46.7609 20.6594 44.5837C13.75 45.786 11.9625 42.9914 11.4125 41.5291C11.1031 40.7817 9.7625 38.4746 8.59375 37.8571C7.63125 37.3697 6.25625 36.1674 8.55938 36.1349C10.725 36.1024 12.2719 38.0196 12.7875 38.7995C15.2625 42.7315 19.2156 41.6266 20.7969 40.9442C21.0375 39.2544 21.7594 38.1171 22.55 37.4672C16.4313 36.8173 10.0375 34.5751 10.0375 24.6315C10.0375 21.8044 11.1031 19.4647 12.8563 17.645C12.5813 16.9951 11.6188 14.3305 13.1313 10.756C13.1313 10.756 15.4344 10.0736 20.6938 13.4206C22.8938 12.8357 25.2313 12.5432 27.5688 12.5432C29.9063 12.5432 32.2438 12.8357 34.4438 13.4206C39.7031 10.0411 42.0063 10.756 42.0063 10.756C43.5188 14.3305 42.5563 16.9951 42.2813 17.645C44.0344 19.4647 45.1 21.7719 45.1 24.6315C45.1 34.6076 38.6719 36.8173 32.5531 37.4672C33.55 38.2796 34.4094 39.8394 34.4094 42.2765C34.4094 45.7535 34.375 48.5481 34.375 49.4255C34.375 50.1079 34.8906 50.9203 36.2656 50.6603C41.7248 48.918 46.4685 45.6012 49.8292 41.1768C53.1899 36.7524 54.9984 31.4432 55 25.9963C55 11.6334 42.6938 0 27.5 0Z" fill="#252525"/>
</svg>
