<svg width="100" height="100" viewBox="0 0 100 100" fill="none" xmlns="http://www.w3.org/2000/svg">
<path d="M8.33301 25C8.33301 20.5797 10.089 16.3405 13.2146 13.2149C16.3402 10.0893 20.5794 8.33334 24.9997 8.33334H74.9997C79.4199 8.33334 83.6592 10.0893 86.7848 13.2149C89.9104 16.3405 91.6663 20.5797 91.6663 25V75C91.6663 79.4203 89.9104 83.6595 86.7848 86.7851C83.6592 89.9107 79.4199 91.6667 74.9997 91.6667H24.9997C20.5794 91.6667 16.3402 89.9107 13.2146 86.7851C10.089 83.6595 8.33301 79.4203 8.33301 75V25Z" stroke="#ABADBB" stroke-width="8.33333" stroke-linecap="round" stroke-linejoin="round"/>
<path d="M35.4167 45.8333C41.1696 45.8333 45.8333 41.1696 45.8333 35.4167C45.8333 29.6637 41.1696 25 35.4167 25C29.6637 25 25 29.6637 25 35.4167C25 41.1696 29.6637 45.8333 35.4167 45.8333Z" stroke="#ABADBB" stroke-width="8.33333" stroke-linecap="round" stroke-linejoin="round"/>
<path d="M60.525 52.5875L25 91.6667H75.5542C79.8275 91.6667 83.9257 89.9691 86.9474 86.9474C89.9691 83.9257 91.6667 79.8275 91.6667 75.5542V75C91.6667 73.0583 90.9375 72.3125 89.625 70.875L72.8333 52.5625C72.0507 51.7088 71.0988 51.0276 70.0382 50.5624C68.9777 50.0971 67.8318 49.8581 66.6737 49.8604C65.5155 49.8628 64.3706 50.1065 63.312 50.576C62.2533 51.0456 61.3041 51.7306 60.525 52.5875V52.5875Z" stroke="#ABADBB" stroke-width="8.33333" stroke-linecap="round" stroke-linejoin="round"/>
</svg>
