<svg width="151" height="131" viewBox="0 0 151 131" fill="none" xmlns="http://www.w3.org/2000/svg">
<g clip-path="url(#clip0_7_65)">
<g opacity="0.2">
<path opacity="0.2" d="M114.551 14.9108H37.5678V94.5184H114.551V14.9108Z" fill="#D9FAFF"/>
<path opacity="0.2" d="M69.8976 16.489L58.0244 53.8125H51.2725L63.1465 16.489H69.8976Z" fill="white"/>
<path opacity="0.2" d="M59.4747 16.489L47.6015 53.8125H43.6926L55.5651 16.489H59.4747Z" fill="white"/>
<path opacity="0.2" d="M109.857 16.151L97.9826 53.4744H91.2315L103.105 16.151H109.857Z" fill="white"/>
<path opacity="0.2" d="M99.4331 16.151L87.5606 53.4744H83.6517L95.5242 16.151H99.4331Z" fill="white"/>
<path opacity="0.2" d="M109.857 56.1806L97.9826 93.5034H91.2315L103.105 56.1806H109.857Z" fill="white"/>
<path opacity="0.2" d="M99.4331 56.1806L87.5606 93.5034H83.6517L95.5242 56.1806H99.4331Z" fill="white"/>
<path opacity="0.2" d="M69.8976 56.1806L58.0244 93.5034H51.2725L63.1465 56.1806H69.8976Z" fill="white"/>
<path opacity="0.2" d="M59.4747 56.1806L47.6015 93.5034H43.6926L55.5651 56.1806H59.4747Z" fill="white"/>
<path opacity="0.2" d="M77.4139 94.713V16.4073C77.4139 16.079 77.1476 15.8129 76.8188 15.8129H75.1868C74.858 15.8129 74.5917 16.079 74.5917 16.4073V94.713C74.5917 95.0415 74.858 95.3075 75.1868 95.3075H76.8188C77.1476 95.3075 77.4139 95.0415 77.4139 94.713Z" fill="#E2B38E"/>
<path opacity="0.2" d="M36.2141 16.1822V94.4879C36.2141 94.8163 36.4805 95.0824 36.8092 95.0824H38.4412C38.7698 95.0824 39.0363 94.8163 39.0363 94.4879V16.1822C39.0363 15.8539 38.7698 15.5877 38.4412 15.5877H36.8092C36.4805 15.5877 36.2141 15.8539 36.2141 16.1822Z" fill="#E2B38E"/>
<path opacity="0.2" d="M113.196 16.1822V94.4879C113.196 94.8163 113.463 95.0824 113.791 95.0824H115.423C115.752 95.0824 116.019 94.8163 116.019 94.4879V16.1822C116.019 15.8539 115.752 15.5877 115.423 15.5877H113.791C113.463 15.5877 113.196 15.8539 113.196 16.1822Z" fill="#E2B38E"/>
<path opacity="0.2" d="M76.7057 95.679H75.0737C74.8171 95.679 74.5717 95.5772 74.3902 95.3959C74.2086 95.2146 74.1068 94.9694 74.1068 94.7131V16.4073C74.1068 16.1511 74.2086 15.9055 74.3902 15.7243C74.5717 15.5431 74.8171 15.4413 75.0737 15.4413H76.7057C76.9624 15.4413 77.2078 15.5431 77.3893 15.7243C77.5708 15.9055 77.6727 16.1511 77.6727 16.4073V94.7131C77.6727 94.9694 77.5708 95.2146 77.3893 95.3959C77.2078 95.5772 76.9624 95.679 76.7057 95.679ZM75.0745 16.1844C75.015 16.1844 74.9584 16.2079 74.9168 16.2497C74.8751 16.2915 74.8513 16.3482 74.8513 16.4073V94.7131C74.8513 94.7725 74.8751 94.829 74.9168 94.8706C74.9584 94.9122 75.015 94.936 75.0745 94.936H76.7065C76.766 94.936 76.8225 94.9122 76.8642 94.8706C76.9058 94.829 76.9296 94.7725 76.9296 94.7131V16.4073C76.9296 16.3482 76.9058 16.2915 76.8642 16.2497C76.8225 16.2079 76.766 16.1844 76.7065 16.1844H75.0745Z" fill="#385868"/>
<path opacity="0.2" d="M38.3274 95.4539H36.6961C36.4396 95.4539 36.1937 95.3521 36.0124 95.1708C35.831 94.9895 35.7291 94.7443 35.7291 94.4879V16.1822C35.7291 15.926 35.831 15.6803 36.0124 15.4992C36.1937 15.318 36.4396 15.2162 36.6961 15.2162H38.3281C38.5846 15.2162 38.8305 15.318 39.0119 15.4992C39.1932 15.6803 39.2951 15.926 39.2951 16.1822V94.4879C39.2951 94.615 39.27 94.7406 39.2215 94.858C39.1728 94.9754 39.1015 95.0816 39.0116 95.1715C38.9218 95.2607 38.815 95.332 38.6977 95.3803C38.5803 95.4294 38.4544 95.4539 38.3274 95.4539ZM36.6961 15.9593C36.6369 15.9593 36.5802 15.9827 36.5384 16.0246C36.4965 16.0663 36.473 16.123 36.473 16.1822V94.4879C36.473 94.5474 36.4965 94.6038 36.5384 94.6455C36.5802 94.6871 36.6369 94.7108 36.6961 94.7108H38.3281C38.3873 94.7108 38.4441 94.6871 38.4859 94.6455C38.5278 94.6038 38.5513 94.5474 38.5513 94.4879V16.1822C38.5513 16.123 38.5278 16.0663 38.4859 16.0246C38.4441 15.9827 38.3873 15.9593 38.3281 15.9593H36.6961Z" fill="#385868"/>
<path opacity="0.2" d="M115.31 95.4539H113.678C113.422 95.4539 113.176 95.3521 112.995 95.1708C112.813 94.9895 112.711 94.7443 112.711 94.4879V16.1822C112.711 15.926 112.813 15.6803 112.995 15.4992C113.176 15.318 113.422 15.2162 113.678 15.2162H115.31C115.567 15.2162 115.813 15.318 115.994 15.4992C116.175 15.6803 116.277 15.926 116.277 16.1822V94.4879C116.277 94.7443 116.175 94.9895 115.994 95.1708C115.813 95.3521 115.567 95.4539 115.31 95.4539ZM113.678 15.9593C113.62 15.9593 113.562 15.9827 113.521 16.0246C113.479 16.0663 113.455 16.123 113.455 16.1822V94.4879C113.455 94.5474 113.479 94.6038 113.521 94.6455C113.562 94.6871 113.62 94.7108 113.678 94.7108H115.31C115.37 94.7108 115.426 94.6871 115.468 94.6455C115.51 94.6038 115.534 94.5474 115.534 94.4879V16.1822C115.534 16.123 115.51 16.0663 115.468 16.0246C115.426 15.9827 115.37 15.9593 115.31 15.9593H113.678Z" fill="#385868"/>
<path opacity="0.2" d="M116.1 13.4448H36.3591C36.0305 13.4448 35.764 13.7109 35.764 14.0392V15.6695C35.764 15.9977 36.0305 16.2639 36.3591 16.2639H116.1C116.429 16.2639 116.696 15.9977 116.696 15.6695V14.0392C116.696 13.7109 116.429 13.4448 116.1 13.4448Z" fill="#E2B38E"/>
<path opacity="0.2" d="M115.986 16.6354H36.246C35.9895 16.6354 35.7436 16.5336 35.5623 16.3525C35.3809 16.1713 35.279 15.9257 35.279 15.6695V14.0392C35.279 13.783 35.3809 13.5374 35.5623 13.3562C35.7436 13.175 35.9895 13.0732 36.246 13.0732H115.986C116.242 13.0732 116.489 13.175 116.669 13.3562C116.851 13.5374 116.953 13.783 116.953 14.0392V15.6695C116.953 15.9257 116.851 16.1713 116.669 16.3525C116.489 16.5336 116.242 16.6354 115.986 16.6354ZM36.246 13.8163C36.1869 13.8163 36.1301 13.8398 36.0882 13.8816C36.0464 13.9234 36.0229 13.9801 36.0229 14.0392V15.6695C36.0229 15.7286 36.0464 15.7853 36.0882 15.8271C36.1301 15.8689 36.1869 15.8924 36.246 15.8924H115.986C116.045 15.8924 116.102 15.8689 116.144 15.8271C116.186 15.7853 116.209 15.7286 116.209 15.6695V14.0392C116.209 13.9801 116.186 13.9234 116.144 13.8816C116.102 13.8398 116.045 13.8163 115.986 13.8163H36.246Z" fill="#385868"/>
<path opacity="0.2" d="M116.1 93.0523H36.3591C36.0305 93.0523 35.764 93.3184 35.764 93.6468V95.277C35.764 95.6055 36.0305 95.8715 36.3591 95.8715H116.1C116.429 95.8715 116.696 95.6055 116.696 95.277V93.6468C116.696 93.3184 116.429 93.0523 116.1 93.0523Z" fill="#E2B38E"/>
<path opacity="0.2" d="M115.986 96.243H36.246C35.9895 96.243 35.7436 96.1412 35.5623 95.9599C35.3809 95.7786 35.279 95.5334 35.279 95.2771V93.6468C35.279 93.3905 35.3809 93.1452 35.5623 92.9639C35.7436 92.7826 35.9895 92.6808 36.246 92.6808H115.986C116.242 92.6808 116.489 92.7826 116.669 92.9639C116.851 93.1452 116.953 93.3905 116.953 93.6468V95.2771C116.953 95.5334 116.851 95.7786 116.669 95.9599C116.489 96.1412 116.242 96.243 115.986 96.243ZM36.246 93.4239C36.1869 93.4239 36.1301 93.4477 36.0882 93.4893C36.0464 93.5309 36.0229 93.5874 36.0229 93.6468V95.2771C36.0229 95.3365 36.0464 95.393 36.0882 95.4346C36.1301 95.4762 36.1869 95.5 36.246 95.5H115.986C116.045 95.5 116.102 95.4762 116.144 95.4346C116.186 95.393 116.209 95.3365 116.209 95.2771V93.6468C116.209 93.5874 116.186 93.5309 116.144 93.4893C116.102 93.4477 116.045 93.4239 115.986 93.4239H36.246Z" fill="#385868"/>
<path opacity="0.2" d="M116.1 53.5866H36.3591C36.0305 53.5866 35.764 53.8528 35.764 54.1811V55.8113C35.764 56.1396 36.0305 56.4058 36.3591 56.4058H116.1C116.429 56.4058 116.696 56.1396 116.696 55.8113V54.1811C116.696 53.8528 116.429 53.5866 116.1 53.5866Z" fill="#E2B38E"/>
<path opacity="0.2" d="M115.986 56.7773H36.246C35.9895 56.7773 35.7436 56.6755 35.5623 56.4944C35.3809 56.3132 35.279 56.0675 35.279 55.8113V54.1811C35.279 53.9249 35.3809 53.6792 35.5623 53.4981C35.7436 53.3169 35.9895 53.2151 36.246 53.2151H115.986C116.242 53.2151 116.489 53.3169 116.669 53.4981C116.851 53.6792 116.953 53.9249 116.953 54.1811V55.8113C116.953 56.0675 116.851 56.3132 116.669 56.4944C116.489 56.6755 116.242 56.7773 115.986 56.7773ZM36.246 53.9582C36.1869 53.9582 36.1301 53.9817 36.0882 54.0235C36.0464 54.0652 36.0229 54.1219 36.0229 54.1811V55.8113C36.0229 55.8705 36.0464 55.9272 36.0882 55.9689C36.1301 56.0108 36.1869 56.0343 36.246 56.0343H115.986C116.045 56.0343 116.102 56.0108 116.144 55.9689C116.186 55.9272 116.209 55.8705 116.209 55.8113V54.1811C116.209 54.1219 116.186 54.0652 116.144 54.0235C116.102 53.9817 116.045 53.9582 115.986 53.9582H36.246Z" fill="#385868"/>
</g>
<g opacity="0.2">
<path opacity="0.2" d="M11.2602 78.0316V78.626H20.4838V78.0316H11.2602Z" fill="#385868"/>
<path opacity="0.2" d="M23.3092 80.5438L23.3063 81.1382L32.5299 81.1836L32.5328 80.5891L23.3092 80.5438Z" fill="#385868"/>
<path opacity="0.2" d="M11.8047 85.1203L11.7512 90.4628L12.3463 90.4688L12.3998 85.1262L11.8047 85.1203Z" fill="#385868"/>
<path opacity="0.2" d="M24.3431 75.5594L24.2896 80.902L24.8847 80.9079L24.9382 75.5654L24.3431 75.5594Z" fill="#385868"/>
<path opacity="0.2" d="M16.1443 82.8057H27.7312C28.5019 82.8057 29.1266 82.1815 29.1266 81.4117V80.0831C29.1266 79.3133 28.5019 78.6891 27.7312 78.6891H16.1443C15.3737 78.6891 14.7489 79.3133 14.7489 80.0831V81.4117C14.7489 82.1815 15.3737 82.8057 16.1443 82.8057Z" fill="#F2F2F2"/>
<path opacity="0.2" d="M27.7313 83.1036H16.1415C15.6927 83.1029 15.2624 82.9246 14.945 82.6073C14.6277 82.2907 14.4491 81.8605 14.4485 81.4124V80.0846C14.4487 79.6358 14.6271 79.2056 14.9445 78.8883C15.2619 78.571 15.6924 78.3927 16.1415 78.3919H27.7313C28.1801 78.3927 28.6105 78.571 28.9278 78.8883C29.2452 79.2048 29.4237 79.6351 29.4243 80.0831V81.411C29.4241 81.8598 29.2457 82.29 28.9283 82.6073C28.6109 82.9246 28.1804 83.1029 27.7313 83.1036ZM16.1415 78.9864C15.8504 78.9871 15.5714 79.1023 15.3656 79.3081C15.1598 79.5139 15.044 79.7926 15.0436 80.0831V81.411C15.0436 81.7022 15.1593 81.9809 15.3651 82.1867C15.571 82.3933 15.8502 82.5084 16.1415 82.5092H27.7313C28.0224 82.5084 28.3014 82.3933 28.5072 82.1874C28.713 81.9816 28.8288 81.703 28.8292 81.4124V80.0846C28.8292 79.7933 28.7136 79.5147 28.5077 79.3089C28.3019 79.1023 28.0227 78.9871 27.7313 78.9864H16.1415Z" fill="#385868"/>
<path opacity="0.2" d="M6.25415 86.9222H17.841C18.6117 86.9222 19.2364 86.298 19.2364 85.5282V84.1996C19.2364 83.4298 18.6117 82.8057 17.841 82.8057H6.25415C5.48346 82.8057 4.8587 83.4298 4.8587 84.1996V85.5282C4.8587 86.298 5.48346 86.9222 6.25415 86.9222Z" fill="#F2F2F2"/>
<path opacity="0.2" d="M17.841 87.2201H6.25498C6.03236 87.2201 5.81196 87.1763 5.60636 87.0908C5.40076 87.0054 5.21399 86.8806 5.05672 86.723C4.89944 86.5655 4.77473 86.379 4.68973 86.1732C4.60471 85.9681 4.56106 85.7474 4.56125 85.5252V84.1974C4.56184 83.7494 4.7404 83.3191 5.05776 83.0026C5.37513 82.6853 5.80541 82.507 6.25423 82.5062H17.841C18.2899 82.507 18.7202 82.6853 19.0375 83.0026C19.3549 83.3191 19.5334 83.7494 19.534 84.1974V85.5252C19.5345 85.974 19.3563 86.405 19.0388 86.723C18.7214 87.0403 18.2905 87.2194 17.841 87.2201ZM6.25498 83.1036C5.96391 83.1044 5.68489 83.2196 5.47908 83.4254C5.27326 83.6312 5.15746 83.9099 5.15707 84.2004V85.5252C5.15746 85.8158 5.27326 86.0944 5.47908 86.3002C5.68489 86.5061 5.96391 86.6212 6.25498 86.622H17.841C18.1321 86.6212 18.4111 86.5061 18.6169 86.3002C18.8228 86.0944 18.9386 85.8158 18.939 85.5252V84.1974C18.9386 83.9069 18.8228 83.6282 18.6169 83.4224C18.4111 83.2166 18.1321 83.1014 17.841 83.1007L6.25498 83.1036Z" fill="#385868"/>
</g>
<g opacity="0.2">
<path opacity="0.2" d="M6.72073 16.573V17.1675H15.9444V16.573H6.72073Z" fill="#385868"/>
<path opacity="0.2" d="M18.748 18.7826L18.7451 19.3771L27.9686 19.4221L27.9716 18.8277L18.748 18.7826Z" fill="#385868"/>
<path opacity="0.2" d="M7.23213 23.2563L7.17865 28.5989L7.77374 28.6048L7.82722 23.2623L7.23213 23.2563Z" fill="#385868"/>
<path opacity="0.2" d="M19.772 13.6966L19.7185 19.0391L20.3136 19.0451L20.3671 13.7025L19.772 13.6966Z" fill="#385868"/>
<path opacity="0.2" d="M11.5831 21.0477H23.1699C23.9406 21.0477 24.5654 20.4236 24.5654 19.6537V18.3251C24.5654 17.5553 23.9406 16.9312 23.1699 16.9312H11.5831C10.8124 16.9312 10.1877 17.5553 10.1877 18.3251V19.6537C10.1877 20.4236 10.8124 21.0477 11.5831 21.0477Z" fill="#F2F2F2"/>
<path opacity="0.2" d="M23.1692 21.3441H11.5839C11.1354 21.343 10.7057 21.1643 10.3888 20.8474C10.0719 20.5304 9.89369 20.1009 9.8931 19.653V18.3251C9.89369 17.8768 10.0722 17.447 10.3896 17.1299C10.707 16.8129 11.1372 16.6345 11.5861 16.6339H23.1692C23.618 16.6345 24.0483 16.8129 24.3657 17.1299C24.6831 17.447 24.8616 17.8768 24.8622 18.3251V19.653C24.8616 20.1013 24.6831 20.5311 24.3657 20.8482C24.0483 21.1652 23.618 21.3436 23.1692 21.3441ZM11.5831 17.2276C11.2924 17.2288 11.0141 17.345 10.8088 17.5506C10.6037 17.7563 10.4884 18.0347 10.4882 18.3251V19.653C10.4885 19.9437 10.6044 20.2224 10.8102 20.428C11.016 20.6336 11.295 20.7493 11.5861 20.7497H23.1692C23.4603 20.7493 23.7393 20.6336 23.9451 20.428C24.1509 20.2224 24.2667 19.9437 24.2671 19.653V18.3251C24.2667 18.0344 24.1509 17.7557 23.9451 17.55C23.7393 17.3444 23.4603 17.2288 23.1692 17.2284L11.5831 17.2276Z" fill="#385868"/>
<path opacity="0.2" d="M1.69291 25.1634H13.2797C14.0504 25.1634 14.6752 24.5394 14.6752 23.7695V22.4409C14.6752 21.671 14.0504 21.0469 13.2797 21.0469H1.69291C0.922218 21.0469 0.297455 21.671 0.297455 22.4409V23.7695C0.297455 24.5394 0.922218 25.1634 1.69291 25.1634Z" fill="#F2F2F2"/>
<path opacity="0.2" d="M13.2791 25.4614H1.69299C1.24403 25.4608 0.813644 25.2823 0.496254 24.9651C0.178864 24.648 0.000393605 24.218 0 23.7695V22.4401C0.000590432 21.9918 0.179148 21.562 0.496516 21.245C0.813882 20.9279 1.24416 20.7496 1.69299 20.749H13.2791C13.7281 20.7493 14.1585 20.9277 14.476 21.2447C14.7935 21.5617 14.9722 21.9916 14.9728 22.4401V23.768C14.9728 24.2169 14.7944 24.6474 14.4768 24.9649C14.1592 25.2824 13.7284 25.461 13.2791 25.4614ZM1.69299 21.3441C1.40205 21.3445 1.12313 21.4601 0.917344 21.6655C0.71155 21.871 0.595664 22.1495 0.595074 22.4401V23.768C0.595467 24.0587 0.711266 24.3375 0.917076 24.5431C1.12289 24.7487 1.40192 24.8644 1.69299 24.8647H13.2791C13.5701 24.8644 13.8492 24.7487 14.055 24.5431C14.2608 24.3375 14.3766 24.0587 14.377 23.768V22.4401C14.3766 22.1494 14.2608 21.8707 14.055 21.6651C13.8492 21.4595 13.5701 21.3438 13.2791 21.3434L1.69299 21.3441Z" fill="#385868"/>
</g>
<g opacity="0.2">
<path opacity="0.2" d="M129.778 80.8351L129.775 81.4295L138.999 81.4741L139.002 80.8797L129.778 80.8351Z" fill="#385868"/>
<path opacity="0.2" d="M141.747 82.984L141.744 83.5785L150.969 83.623L150.972 83.0286L141.747 82.984Z" fill="#385868"/>
<path opacity="0.2" d="M130.442 87.5612L130.388 92.9037L130.983 92.9097L131.037 87.5671L130.442 87.5612Z" fill="#385868"/>
<path opacity="0.2" d="M142.98 78.0018L142.926 83.3444L143.521 83.3503L143.575 78.0078L142.98 78.0018Z" fill="#385868"/>
<path opacity="0.2" d="M134.58 85.2466H146.167C146.938 85.2466 147.563 84.6224 147.563 83.8526V82.5241C147.563 81.7543 146.938 81.1301 146.167 81.1301H134.58C133.81 81.1301 133.185 81.7543 133.185 82.5241V83.8526C133.185 84.6224 133.81 85.2466 134.58 85.2466Z" fill="#F2F2F2"/>
<path opacity="0.2" d="M146.165 85.5446H134.581C134.132 85.5438 133.702 85.3655 133.384 85.0482C133.067 84.7317 132.889 84.3014 132.888 83.8534V82.5255C132.889 82.0775 133.067 81.6473 133.384 81.33C133.702 81.0134 134.132 80.8351 134.581 80.8344H146.165C146.614 80.8351 147.044 81.0134 147.361 81.33C147.679 81.6473 147.857 82.0775 147.858 82.5255V83.8534C147.857 84.3014 147.679 84.7317 147.361 85.0482C147.044 85.3655 146.614 85.5438 146.165 85.5446ZM134.579 81.428C134.287 81.428 134.008 81.544 133.803 81.7498C133.597 81.9556 133.481 82.2343 133.481 82.5248V83.8526C133.481 84.1432 133.597 84.4218 133.803 84.6276C134.008 84.8335 134.287 84.9486 134.579 84.9494H146.165C146.456 84.9486 146.735 84.8335 146.941 84.6276C147.147 84.4218 147.262 84.1432 147.263 83.8526V82.5248C147.262 82.2343 147.147 81.9556 146.941 81.7498C146.735 81.544 146.456 81.428 146.165 81.428H134.579Z" fill="#385868"/>
<path opacity="0.2" d="M124.69 89.3638H136.277C137.048 89.3638 137.673 88.7397 137.673 87.9699V86.6413C137.673 85.8715 137.048 85.2473 136.277 85.2473H124.69C123.92 85.2473 123.295 85.8715 123.295 86.6413V87.9699C123.295 88.7397 123.92 89.3638 124.69 89.3638Z" fill="#F2F2F2"/>
<path opacity="0.2" d="M136.276 89.6611H124.69C124.242 89.6603 123.811 89.482 123.493 89.1647C123.177 88.8482 122.998 88.418 122.997 87.9699V86.6398C122.998 86.1918 123.177 85.7615 123.493 85.4443C123.811 85.1277 124.242 84.9494 124.69 84.9486H136.276C136.725 84.9494 137.156 85.1277 137.472 85.4443C137.79 85.7615 137.969 86.1918 137.969 86.6398V87.9677C137.969 88.4165 137.791 88.8467 137.473 89.164C137.156 89.482 136.726 89.6603 136.276 89.6611ZM124.69 85.5446C124.399 85.5453 124.12 85.6605 123.914 85.8663C123.708 86.0721 123.592 86.3508 123.592 86.6413V87.9691C123.592 88.2597 123.708 88.5383 123.914 88.7441C124.12 88.95 124.399 89.0652 124.69 89.0659H136.276C136.567 89.0652 136.846 88.95 137.052 88.7441C137.258 88.5383 137.374 88.2597 137.374 87.9691V86.6398C137.374 86.3493 137.258 86.0706 137.052 85.8648C136.846 85.659 136.567 85.5438 136.276 85.5431L124.69 85.5446Z" fill="#385868"/>
</g>
<g opacity="0.2">
<path opacity="0.2" d="M129.779 2.96362L129.776 3.55806L139 3.60309L139.003 3.00865L129.779 2.96362Z" fill="#385868"/>
<path opacity="0.2" d="M141.747 5.11276L141.744 5.7072L150.968 5.75222L150.971 5.15779L141.747 5.11276Z" fill="#385868"/>
<path opacity="0.2" d="M130.438 9.55893L130.384 14.9015L130.979 14.9074L131.033 9.56487L130.438 9.55893Z" fill="#385868"/>
<path opacity="0.2" d="M142.977 -0.000762939L142.924 5.34178L143.519 5.34772L143.572 0.00518147L142.977 -0.000762939Z" fill="#385868"/>
<path opacity="0.2" d="M134.58 7.37777H146.167C146.938 7.37777 147.563 6.75367 147.563 5.9838V4.65523C147.563 3.88537 146.938 3.26126 146.167 3.26126H134.58C133.81 3.26126 133.185 3.88537 133.185 4.65523V5.9838C133.185 6.75367 133.81 7.37777 134.58 7.37777Z" fill="#F2F2F2"/>
<path opacity="0.2" d="M146.165 7.67498H134.581C134.132 7.67438 133.702 7.49597 133.384 7.17898C133.067 6.86195 132.889 6.43213 132.888 5.98378V4.65521C132.889 4.20686 133.067 3.77704 133.384 3.46001C133.702 3.14298 134.132 2.96461 134.581 2.96402H146.165C146.614 2.96461 147.044 3.14298 147.361 3.46001C147.679 3.77704 147.857 4.20686 147.858 4.65521V5.98304C147.857 6.43152 147.679 6.86153 147.362 7.17871C147.044 7.4959 146.614 7.67438 146.165 7.67498ZM134.579 3.55846C134.287 3.55886 134.008 3.67453 133.803 3.88012C133.597 4.08572 133.481 4.36445 133.481 4.65521V5.98304C133.481 6.2738 133.597 6.55253 133.803 6.75812C134.008 6.96371 134.287 7.07939 134.579 7.07978H146.165C146.456 7.07939 146.735 6.96371 146.941 6.75812C147.147 6.55253 147.262 6.2738 147.263 5.98304V4.65521C147.263 4.36432 147.147 4.0854 146.941 3.87965C146.736 3.67389 146.456 3.55811 146.165 3.55772L134.579 3.55846Z" fill="#385868"/>
<path opacity="0.2" d="M124.69 11.4935H136.277C137.048 11.4935 137.673 10.8694 137.673 10.0996V8.77099C137.673 8.00111 137.048 7.37701 136.277 7.37701H124.69C123.92 7.37701 123.295 8.00111 123.295 8.77099V10.0996C123.295 10.8694 123.92 11.4935 124.69 11.4935Z" fill="#F2F2F2"/>
<path opacity="0.2" d="M136.276 11.7915H124.69C124.242 11.7909 123.811 11.6126 123.493 11.2955C123.177 10.9785 122.998 10.5487 122.997 10.1003V8.76803C122.998 8.31967 123.177 7.88989 123.493 7.57283C123.811 7.2558 124.242 7.07743 124.69 7.07684H136.276C136.725 7.07724 137.156 7.25552 137.473 7.57253C137.791 7.88959 137.969 8.31952 137.97 8.76803V10.0959C137.97 10.3183 137.927 10.5386 137.841 10.7442C137.757 10.9499 137.632 11.1367 137.475 11.2942C137.318 11.4516 137.131 11.5766 136.925 11.662C136.72 11.7473 136.499 11.7913 136.276 11.7915ZM124.69 7.675C124.399 7.67537 124.121 7.79054 123.916 7.99533C123.71 8.20011 123.594 8.47794 123.592 8.76803V10.0959C123.592 10.3866 123.708 10.6653 123.914 10.8709C124.12 11.0765 124.399 11.1922 124.69 11.1926H136.276C136.567 11.1922 136.846 11.0765 137.052 10.8709C137.258 10.6653 137.374 10.3866 137.374 10.0959V8.76803C137.374 8.47727 137.258 8.19855 137.052 7.99295C136.846 7.78735 136.567 7.67166 136.276 7.67128L124.69 7.675Z" fill="#385868"/>
</g>
<path d="M124.652 130.2H23.266V130.944H124.652V130.2Z" fill="#385868"/>
<path d="M136.032 130.2H126.734V130.944H136.032V130.2Z" fill="#385868"/>
<path d="M21.7039 130.2H15.2325V130.944H21.7039V130.2Z" fill="#385868"/>
<path d="M83.3602 71.1383V74.8253C83.3602 75.8024 83.7492 76.7401 84.441 77.4312C85.1328 78.1222 86.0708 78.5101 87.0489 78.5101H91.5499C93.5784 78.5101 95.5235 79.3148 96.9576 80.7474C98.3918 82.18 99.1973 84.1231 99.1973 86.1494V107.232H59.1431V86.1494C59.1432 84.1231 59.949 82.1808 61.3831 80.7482C62.8173 79.3156 64.7623 78.5108 66.7905 78.5108H71.2915C71.7759 78.5108 72.2555 78.415 72.703 78.23C73.1505 78.0449 73.5571 77.773 73.8996 77.4312C74.242 77.0886 74.5137 76.6822 74.6989 76.2356C74.8841 75.7883 74.9793 75.309 74.9793 74.8253V71.1383" fill="#FFC6AD"/>
<path d="M98.8894 86.3797V107.463H59.1431V86.3797C59.1432 84.3534 59.949 82.4111 61.3831 80.9785C62.8173 79.5459 64.7623 78.7411 66.7905 78.7411H68.9305C69.1321 80.656 70.4792 82.4728 72.1484 83.4335C73.8436 84.4091 75.8355 84.7443 77.7896 84.8327C80.2956 84.9464 82.8618 84.6677 85.1536 83.6483C87.3293 82.6823 89.2447 80.922 90.1916 78.7441H91.2419C93.2697 78.7441 95.2141 79.5481 96.6482 80.98C98.0823 82.4118 98.8886 84.3542 98.8894 86.3797Z" fill="#82F0B7"/>
<path d="M98.7354 86.3797V89.9895C98.7354 87.9632 97.9298 86.0201 96.4957 84.5875C95.0616 83.1549 93.1164 82.3502 91.088 82.3502H90.0376C89.0885 84.531 87.1753 86.2883 84.9996 87.2543C82.7078 88.2738 80.1416 88.5524 77.6356 88.4387C75.6815 88.3503 73.6895 88.0144 71.9943 87.0396C70.3243 86.0788 68.9772 84.262 68.7764 82.3472H66.6364C65.6317 82.3472 64.6367 82.5441 63.7085 82.9283C62.7801 83.3124 61.9367 83.8749 61.2263 84.5853C60.5159 85.2949 59.9525 86.1375 59.5682 87.0648C59.1839 87.9921 58.9863 88.9856 58.9867 89.9895V86.3797C58.9868 85.3766 59.1848 84.3831 59.5693 83.4558C59.9538 82.5292 60.5173 81.6866 61.2276 80.9777C61.938 80.2681 62.7813 79.7056 63.7093 79.3222C64.6374 78.9381 65.632 78.7411 66.6364 78.7411H68.7764C68.978 80.656 70.3251 82.4728 71.9943 83.4335C73.6895 84.4092 75.6815 84.7443 77.6356 84.8327C80.1416 84.9464 82.7078 84.6677 84.9996 83.6483C87.1753 82.6823 89.0907 80.922 90.0376 78.7441H91.088C93.1157 78.7441 95.0601 79.5481 96.4942 80.98C97.9283 82.4118 98.7347 84.3542 98.7354 86.3797Z" fill="#BEF8D9"/>
<path d="M83.2062 71.6755V74.4776L83.1392 74.4939C80.4168 75.1433 77.5939 75.2622 74.826 74.8439V71.6755H83.2062Z" fill="#E39493"/>
<path d="M82.6059 71.1383C82.6059 72.3844 82.5836 73.632 82.6059 74.8773C82.6171 75.5022 82.7688 76.1167 83.05 76.6747C83.3304 77.2335 83.7336 77.721 84.229 78.1029C85.0137 78.7055 85.9398 78.9559 86.9209 78.9559C88.3476 78.9559 89.7743 78.95 91.201 78.9559C93.5419 78.9656 95.7875 80.0816 97.1339 82.0128C98.063 83.3451 98.4408 84.8617 98.4408 86.4711V104.609C98.4408 105.436 98.3754 106.294 98.4408 107.12C98.4408 107.158 98.4408 107.194 98.4408 107.236L98.8871 106.79H60.4604C59.9546 106.79 59.4086 106.731 58.9043 106.79C58.8812 106.791 58.8581 106.791 58.8351 106.79L59.2814 107.236V86.9222C59.2814 85.7816 59.3402 84.6811 59.7478 83.5926C60.6151 81.2772 62.7038 79.557 65.122 79.0837C65.8294 78.9455 66.5406 78.9567 67.2569 78.9567H69.9035C70.5528 78.9567 71.2186 78.996 71.8575 78.863C72.4602 78.7323 73.026 78.4685 73.5137 78.0917C74.0014 77.7143 74.3991 77.2335 74.6766 76.6837C75.0663 75.8983 75.1184 75.0898 75.1184 74.2353V71.1383C75.1184 70.5646 74.2259 70.5639 74.2259 71.1383C74.2259 72.3844 74.2482 73.632 74.2259 74.8773C74.2127 75.4769 74.0348 76.0617 73.7117 76.567C73.3887 77.073 72.9328 77.4802 72.3939 77.7447C71.714 78.0799 70.9999 78.0642 70.2672 78.0642H67.6638C67.0322 78.0642 66.391 78.039 65.761 78.0984C64.513 78.2166 63.3088 78.6193 62.2417 79.2769C61.1745 79.9338 60.2729 80.8269 59.6065 81.888C58.7391 83.2775 58.3918 84.8468 58.3918 86.4682V99.9107C58.3918 102.31 58.3352 104.718 58.3918 107.118C58.3918 107.157 58.3918 107.193 58.3918 107.234C58.3935 107.352 58.4411 107.465 58.5244 107.548C58.6077 107.631 58.7202 107.679 58.8381 107.68H93.9674C95.5822 107.68 97.2083 107.738 98.8224 107.68C98.8455 107.68 98.8685 107.68 98.8916 107.68C99.0099 107.679 99.1222 107.631 99.2055 107.548C99.2888 107.465 99.3364 107.352 99.3379 107.234V86.9222C99.3379 85.7727 99.2873 84.6447 98.9065 83.5413C98.4981 82.3658 97.8264 81.2988 96.9427 80.422C96.0598 79.5451 94.9872 78.8809 93.8082 78.4796C92.1583 77.9238 90.3761 78.065 88.6608 78.065C88.0285 78.065 87.3963 78.0717 86.7632 78.065C86.2165 78.065 85.678 77.9283 85.1967 77.6675C84.7162 77.4067 84.3086 77.0292 84.011 76.5707C83.5476 75.8403 83.5015 75.0668 83.5015 74.2361V71.1383C83.5015 70.5646 82.6089 70.5639 82.6089 71.1383H82.6059Z" fill="#385868"/>
<path d="M73.8464 27.9001C74.3761 29.3862 75.979 30.1738 77.4771 30.6694C80.181 31.5622 83.0165 31.9936 85.8639 31.9453C87.8976 31.9096 89.9551 31.6317 91.9478 32.0493C93.9406 32.4669 95.9162 33.794 96.3365 35.7816" fill="#EF7679"/>
<path d="M71.9095 21.4274C75.985 18.4046 80.9241 16.2936 85.9979 16.4489C91.0716 16.6042 96.2175 19.3305 98.3977 23.9092C101.337 30.0765 98.6328 37.6905 97.671 44.0533C96.6058 51.12 96.7702 58.3174 98.156 65.3283C98.7964 68.5599 99.7255 71.8115 101.454 74.644C101.868 75.3231 102.654 76.0223 102.956 76.7334C103.341 77.6392 103.03 77.6697 101.967 77.9662C100.385 78.4068 98.667 78.2136 97.058 78.0962C95.2684 77.9662 93.4608 77.8146 91.7545 77.2625C88.9279 76.3478 86.0269 73.8162 86.52 70.5423" fill="#EF7679"/>
<path d="M102.198 77.9647C100.616 78.4053 98.8976 78.2121 97.2886 78.0955C95.4989 77.9647 93.6914 77.8139 91.985 77.2618C89.1584 76.3463 86.2574 73.8155 86.7499 70.5416L85.832 67.4691C87.3754 70.367 90.3344 72.5411 93.553 73.4298C96.0278 74.1134 98.6171 74.1365 101.16 73.7271C101.326 74.0371 101.502 74.343 101.685 74.6447C102.1 75.3239 102.885 76.0224 103.187 76.7335C103.572 77.6385 103.262 77.6682 102.198 77.9647Z" fill="#DB6A72"/>
<path d="M68.1361 40.4963C72.4266 40.0505 71.3741 34.5764 73.0455 30.6041C74.1151 28.0613 74.4772 24.9271 72.8513 22.6973C70.4859 19.4531 65.7447 18.7279 62.1318 20.0186C57.2016 21.7796 56.2874 27.0032 56.0888 31.68C55.9014 36.0856 56.8855 40.4309 58.0667 44.6463C58.7592 47.1095 59.1869 49.6358 59.5633 52.1622C60.3577 57.501 60.9186 63.0108 59.6057 68.2456C58.2928 73.4804 54.7641 78.4521 49.6271 80.1255C53.867 80.7905 58.3717 80.5148 62.1846 78.5502C65.9976 76.5856 68.9811 72.7329 69.1604 68.4507" fill="#EF7679"/>
<path d="M61.646 76.3263C58.8849 77.7492 55.76 78.285 52.6373 78.221C51.5591 79.0154 50.3615 79.6328 49.0892 80.0519C53.3291 80.717 57.8338 80.4413 61.6468 78.4767C65.4597 76.512 68.4432 72.6593 68.6225 68.3771L68.569 66.9059C68.1212 70.9131 65.2566 74.4664 61.646 76.3263Z" fill="#DB6A72"/>
<path d="M91.2107 31.7654C92.261 33.6038 92.8382 35.6553 92.813 38.0115C92.7772 41.3664 91.5752 44.7042 92.1435 47.9625C92.3086 48.9069 92.6166 49.7889 92.8539 50.7029C94.2597 56.1123 92.9885 62.4944 90.1463 66.648C87.3041 70.8017 83.1095 72.8324 79.0057 72.828H78.979C74.8752 72.8324 70.6807 70.8017 67.8385 66.648C64.9963 62.4944 63.7251 56.1123 65.1309 50.7029C65.3682 49.7889 65.6762 48.9076 65.8413 47.9625C66.4103 44.7035 65.2083 41.3657 65.1718 38.0115C65.1473 35.6561 65.7238 33.2969 66.7741 31.4586L69.4422 27.3643L77.0532 25.1352L81.7394 26.0566" fill="#FFC6AD"/>
<path d="M90.1478 64.2673C87.3055 68.4209 83.111 70.4517 79.0072 70.4472H78.9804C74.8767 70.4517 70.6821 68.4209 67.8399 64.2673C65.955 61.512 64.7619 57.776 64.5819 53.9946C64.3587 58.4276 65.6233 63.0242 67.8399 66.2646C70.6821 70.4183 74.8767 72.449 78.9804 72.4446H79.0072C83.111 72.449 87.3055 70.4183 90.1478 66.2646C92.3651 63.0242 93.626 58.4276 93.4058 53.9953C93.2258 57.776 92.0327 61.512 90.1478 64.2673Z" fill="#E39493"/>
<path d="M92.1308 33.8215C92.1211 33.8215 92.1107 33.817 92.1011 33.8148C91.9523 33.7831 91.802 33.7553 91.6496 33.7316C89.7996 33.4381 87.8976 33.6781 86.0172 33.7108C82.6357 33.7695 76.7192 33.681 74.6424 30.4763C76.6589 33.583 67.1488 38.8668 65.1955 39.9301L65.0467 38.5376C65.0311 38.389 65.0185 38.2345 65.098 38.1119C65.1724 38.0182 65.2713 37.947 65.3837 37.906C68.7659 36.3114 71.2288 34.0072 72.7425 30.5275C72.7522 30.5045 72.7618 30.4815 72.7708 30.4584C72.8139 30.3544 72.8563 30.2496 72.8957 30.1434L72.9024 30.127C73.2662 29.2666 73.5285 28.367 73.6842 27.4461L74.1528 29.0228C74.1744 28.7999 74.1878 28.5726 74.193 28.3496V28.3296C74.1975 28.0873 74.193 27.8466 74.1744 27.6073C74.1369 27.0335 74.0246 26.4669 73.8404 25.9221V25.5721L75.3855 25.1196C75.2709 25.7571 75.0537 26.4296 75.294 27.0315C75.5625 27.7047 76.3041 28.042 76.9862 28.2902C80.5455 29.5839 84.3123 30.217 88.0999 30.1582C88.4362 30.153 88.7731 30.1419 89.1108 30.13L91.0589 31.3048C91.0909 31.3612 91.1237 31.4192 91.1549 31.4771L91.1259 31.4727C91.1683 31.547 91.2092 31.6213 91.2494 31.6956C91.6101 32.3745 91.9054 33.0864 92.1308 33.8215Z" fill="#E39493"/>
<path d="M73.9996 28.1304C74.5293 29.6165 76.1322 30.4042 77.6303 30.8998C80.3342 31.792 83.1697 32.2229 86.0172 32.1741C88.0508 32.1384 90.1083 31.8605 92.1011 32.2781C94.0938 32.6957 96.0695 34.0228 96.4897 36.0105L98.0429 24.2911L73.9795 23.0621L73.9996 28.1304Z" fill="#EF7679"/>
<path d="M99.6623 78.6149C98.9392 78.6149 98.2147 78.5591 97.5051 78.5041L97.0305 78.4685C95.0809 78.3266 93.3299 78.1646 91.6392 77.6177C90.0771 77.1131 88.6125 76.1717 87.6128 75.0341C86.4152 73.6721 85.9093 72.0998 86.1511 70.4888L86.8868 70.5988C86.6242 72.3524 87.4402 73.7122 88.1714 74.5437C89.0856 75.584 90.4327 76.4466 91.8683 76.911C93.4794 77.4312 95.1843 77.5894 97.0848 77.7284L97.5624 77.7648C99.0099 77.8763 100.507 77.9877 101.871 77.611L102.031 77.5672C102.333 77.4839 102.675 77.3896 102.746 77.319C102.746 77.2937 102.746 77.1882 102.618 76.8821C102.463 76.518 102.138 76.1256 101.823 75.7459C101.575 75.4606 101.346 75.1582 101.14 74.8416C100.202 73.305 98.8344 70.6545 97.793 65.4049C96.3923 58.3535 96.2272 51.1128 97.305 44.005C97.5155 42.6103 97.8034 41.1881 98.1076 39.6812C99.1899 34.3275 100.309 28.7918 98.063 24.0771C97.0536 21.9572 95.3361 20.1493 93.0971 18.849C90.9295 17.6018 88.4883 16.9045 85.9882 16.8182C80.2368 16.6429 75.2769 19.3914 72.1326 21.7224L71.6863 21.1279C74.9287 18.7234 80.0449 15.8961 86.0083 16.0752C88.6326 16.1533 91.1966 16.8821 93.469 18.1958C95.8382 19.572 97.6583 21.4913 98.7332 23.7472C99.7887 25.963 100.225 28.5532 100.072 31.6666C99.936 34.3877 99.3774 37.1489 98.8381 39.8194C98.5353 41.3166 98.2497 42.7307 98.0414 44.1068C96.9762 51.1306 97.1391 58.2859 98.5234 65.254C99.541 70.3878 100.866 72.9602 101.775 74.4486C101.963 74.7346 102.17 75.0081 102.395 75.2659C102.744 75.6865 103.104 76.1219 103.301 76.5856C103.45 76.9422 103.571 77.316 103.416 77.637C103.241 77.9981 102.838 78.1096 102.226 78.2775L102.068 78.3214C101.28 78.5406 100.472 78.6149 99.6623 78.6149Z" fill="#385868"/>
<path d="M79.0221 73.2478H78.9656C74.4579 73.2478 70.2916 70.9369 67.5335 66.9058C64.506 62.4824 63.397 55.9518 64.7723 50.6583C64.8519 50.3506 64.9404 50.0445 65.0267 49.748C65.2095 49.1566 65.3597 48.5555 65.4767 47.9476C65.8085 46.0491 65.5228 44.141 65.2201 42.1214C65.0222 40.798 64.8169 39.4293 64.8028 38.0643C64.7768 35.6256 65.3637 33.2345 66.4541 31.3233L67.1005 31.6949C66.0889 33.4648 65.5229 35.7816 65.5474 38.0598C65.5615 39.3736 65.7624 40.7162 65.9565 42.0151C66.254 44.005 66.5627 46.0618 66.2102 48.0791C66.0885 48.7133 65.9323 49.3404 65.7423 49.9576C65.6582 50.2489 65.5712 50.552 65.4938 50.8492C64.1691 55.9481 65.2357 62.2343 68.1486 66.4912C70.7662 70.3164 74.7093 72.5099 78.9671 72.5099H79.0228C83.2821 72.5099 87.2244 70.3172 89.842 66.4912C92.7549 62.2343 93.8223 55.9481 92.4968 50.8492C92.4224 50.552 92.3324 50.2496 92.2484 49.9576C92.0587 49.3403 91.9025 48.7133 91.7805 48.0791C91.4279 46.0625 91.7366 44.005 92.0341 42.0151C92.2283 40.7162 92.4299 39.3736 92.4432 38.0598C92.4663 35.8537 91.9583 33.872 90.8894 32.0025L91.5357 31.631C92.6716 33.6186 93.2116 35.7229 93.1871 38.065C93.173 39.43 92.9677 40.7987 92.7698 42.1221C92.467 44.1417 92.1814 46.0499 92.5132 47.9484C92.6299 48.5563 92.7802 49.1573 92.9632 49.7488C93.0487 50.046 93.1372 50.3514 93.2176 50.659C94.5937 55.9533 93.4839 62.4832 90.4572 66.9073C87.699 70.9369 83.5335 73.2478 79.0221 73.2478Z" fill="#385868"/>
<path d="M72.8966 30.9853C71.3769 34.5965 68.3056 37.7544 64.5351 38.6305C64.1961 38.7097 63.8529 38.7695 63.507 38.8096C62.1592 37.4401 59.7261 34.6856 59.8377 32.7374C59.9916 30.0497 64.5239 25.749 65.6032 24.2131C66.0978 23.5072 66.6736 21.683 67.1519 19.916C67.2643 19.9331 67.3751 19.9524 67.4874 19.9725C69.5449 20.3559 71.4543 21.3665 72.7024 23.0784C74.3247 25.3113 73.964 28.4455 72.8966 30.9853Z" fill="#EF7679"/>
<path d="M53.6734 80.8239C52.2991 80.821 50.927 80.711 49.5696 80.4955L48.0388 80.2555L49.5124 79.7755C54.0937 78.2827 57.8233 73.8311 59.2455 68.1586C60.5897 62.7968 59.9247 57.1199 59.1957 52.2202C58.8372 49.8112 58.4095 47.2417 57.708 44.7466C56.5618 40.6449 55.5256 36.2245 55.719 31.6644C55.9146 27.0575 56.8072 21.5269 62.0082 19.6686C63.9458 18.9879 66.0348 18.8592 68.0415 19.297C70.2165 19.7763 71.9838 20.8768 73.1539 22.481C73.9602 23.5874 74.3567 24.9532 74.3329 26.5411C74.3128 27.8785 73.9863 29.3327 73.3905 30.7504C72.5295 32.8166 71.2043 34.6574 69.5173 36.1301C67.732 37.669 65.6783 38.5963 63.5747 38.814L63.5003 38.0747C67.3125 37.6809 70.9261 34.6931 72.7069 30.4629C73.267 29.1321 73.5727 27.7723 73.592 26.5307C73.6136 25.107 73.2647 23.8921 72.5559 22.9187C71.4951 21.4638 69.878 20.4622 67.8845 20.0208C66.0136 19.6128 64.0659 19.7333 62.2596 20.3685C60.1203 21.1324 58.6237 22.614 57.6827 24.8967C56.7529 27.1541 56.5409 29.858 56.4628 31.6963C56.2732 36.1547 57.2952 40.506 58.4273 44.5467C59.1369 47.0783 59.5699 49.6782 59.9314 52.1109C60.6707 57.082 61.3447 62.8451 59.9671 68.3392C58.6282 73.6892 55.295 78.0063 51.1042 79.9464C54.2521 80.2711 58.3276 80.1232 62.0141 78.2233C65.9654 76.1873 68.6247 72.3465 68.789 68.4388L69.5329 68.47C69.3581 72.64 66.5411 76.7275 62.3563 78.8838C59.4865 80.3618 56.4056 80.8239 53.6734 80.8239Z" fill="#385868"/>
<path d="M95.9728 35.8575C95.5495 33.8609 93.4988 32.7537 91.8712 32.4119C90.4423 32.1147 88.9279 32.1853 87.4632 32.2559C86.9425 32.2811 86.4025 32.3071 85.8707 32.3161C82.9808 32.3673 80.1029 31.9297 77.3596 31.0217C75.227 30.3165 73.9632 29.3364 73.4916 28.0249L74.1923 27.7753C74.5836 28.872 75.6629 29.6797 77.5902 30.3165C80.2539 31.1981 83.0478 31.6232 85.8535 31.5738C86.3742 31.5648 86.9076 31.5388 87.4231 31.5143C88.9346 31.44 90.4974 31.3657 92.02 31.686C93.0897 31.9062 94.0946 32.3681 94.9582 33.0361C95.8813 33.7695 96.4823 34.6923 96.6965 35.7044L95.9728 35.8575Z" fill="#385868"/>
<path d="M71.8708 44.0288C71.8916 43.2664 72.4897 42.6318 73.2692 42.6318C74.0488 42.6318 74.6475 43.2664 74.6676 44.0288C74.6832 44.6017 75.5759 44.6039 75.5602 44.0288C75.5268 42.7849 74.5404 41.7402 73.2692 41.7402C71.998 41.7402 71.0116 42.7856 70.9782 44.0288C70.9625 44.6024 71.8552 44.6024 71.8708 44.0288Z" fill="#385868"/>
<path d="M82.5568 44.0288C82.5776 43.2664 83.1757 42.6318 83.9552 42.6318C84.7348 42.6318 85.3336 43.2664 85.3536 44.0288C85.3693 44.6017 86.2619 44.6039 86.2462 44.0288C86.2128 42.7849 85.2265 41.7402 83.9552 41.7402C82.684 41.7402 81.6977 42.7856 81.6642 44.0288C81.6486 44.6024 82.5412 44.6024 82.5568 44.0288Z" fill="#385868"/>
<path d="M80.0114 52.1689C79.9906 52.9313 79.3926 53.5659 78.613 53.5659C77.8335 53.5659 77.2347 52.9313 77.2146 52.1689C77.199 51.596 76.3064 51.5938 76.322 52.1689C76.3555 53.4128 77.3418 54.4575 78.613 54.4575C79.8842 54.4575 80.8706 53.412 80.9041 52.1689C80.9197 51.5953 80.0271 51.5953 80.0114 52.1689Z" fill="#385868"/>
<path d="M98.2549 28.441C98.1329 26.897 97.4694 25.4347 96.5775 24.1678C94.346 20.9949 90.6521 18.9664 86.799 18.4894C82.9459 18.0123 78.976 19.0258 75.6562 21.0365C75.442 21.1666 75.2166 21.3159 75.1258 21.55C75.0113 21.8472 75.1474 22.1727 75.259 22.4699C75.6279 23.4625 75.7239 24.5357 75.5379 25.5781C75.4226 26.2163 75.2054 26.8903 75.4457 27.4929C75.7142 28.1661 76.4558 28.5042 77.1379 28.7524C80.698 30.0457 84.464 30.6786 88.2517 30.6197C90.0458 30.5907 91.8675 30.4094 93.6148 30.8144C95.3621 31.2193 97.0759 32.3696 97.5415 34.1009C97.8219 33.9076 98.0496 33.6483 98.205 33.3459C98.3612 33.0434 98.4393 32.7074 98.4341 32.3673" fill="#DB6A72"/>
<path d="M57.6195 37.3896C56.7364 33.8435 56.8341 30.1244 57.9022 26.6295C58.3485 25.1798 58.9919 23.7316 60.1255 22.7247C61.2591 21.7179 62.7677 21.2461 64.2702 21.0974C65.4276 20.9838 66.617 21.0521 67.7142 21.4363C70.6018 22.4468 72.4064 25.6769 72.12 28.7182C71.8336 31.7595 69.6906 34.4627 66.9458 35.8106C65.4767 36.5321 63.8566 36.9051 62.3823 37.6162C60.9081 38.3273 59.5156 39.5006 59.1675 41.0989" fill="#DB6A72"/>
<path d="M92.9126 19.9182C93.3775 20.2446 93.8193 20.6031 94.2344 20.9912C94.6175 21.3554 94.9775 21.7426 95.3137 22.1503C95.8768 22.8432 96.3603 23.5978 96.753 24.3996C96.9189 24.7414 97.0506 25.0586 97.157 25.3403C97.2075 25.4822 97.2544 25.6137 97.2953 25.7363L97.3935 26.0751L97.4322 26.2193L97.4597 26.3478C97.4761 26.4281 97.488 26.4964 97.4961 26.5514C97.5125 26.6621 97.5118 26.7231 97.4961 26.7283C97.4805 26.7335 97.4411 26.6844 97.3898 26.5856C97.3645 26.5366 97.3347 26.4749 97.302 26.4013L97.2499 26.2832L97.1875 26.1494L97.0454 25.8351L96.8676 25.4636C96.7374 25.2006 96.5835 24.9048 96.4005 24.5861C95.9713 23.8409 95.4736 23.1376 94.9128 22.4855C94.5795 22.1052 94.2262 21.7428 93.855 21.3999C93.4541 21.0349 93.0301 20.6957 92.586 20.3841C92.1405 20.0718 91.6756 19.7874 91.1951 19.5326L91.0217 19.4382L90.8469 19.3513C90.7309 19.2948 90.6171 19.2346 90.5018 19.1811C90.2705 19.0771 90.0458 18.9701 89.8197 18.8839C89.3957 18.7102 88.9635 18.5578 88.5247 18.4277L88.2182 18.3452C88.1178 18.3177 88.0196 18.2894 87.9207 18.2709C87.725 18.2307 87.5391 18.1802 87.3583 18.1557C87.1776 18.1312 87.0065 18.0911 86.8421 18.0814L86.6033 18.0546L86.4888 18.0413L86.3779 18.0361L85.9718 18.0138C85.8476 18.0138 85.733 18.0138 85.6296 18.0138H85.4809L85.3529 18.0212C85.2733 18.0249 85.2042 18.0272 85.1499 18.0264C85.039 18.0264 84.978 18.016 84.9743 17.9967C84.9706 17.9774 85.0234 17.9491 85.1298 17.9135C85.1833 17.8956 85.2495 17.8756 85.3291 17.854L85.4578 17.8198L85.6066 17.7953C85.7115 17.7785 85.829 17.7611 85.9584 17.7433C86.0878 17.7329 86.2284 17.7262 86.3809 17.718L86.4969 17.7121H86.6167L86.8674 17.718C87.0407 17.718 87.2207 17.7411 87.4111 17.7582C87.6016 17.7753 87.7987 17.8109 88.0062 17.8414C88.1096 17.8555 88.2137 17.8793 88.3194 17.9023L88.6429 17.9729C89.1063 18.0879 89.5631 18.2304 90.0101 18.3994C90.2481 18.4841 90.4839 18.5889 90.7272 18.6922C90.8477 18.7449 90.9674 18.8044 91.0894 18.8616L91.2724 18.9493L91.4539 19.0444C91.9597 19.3019 92.4469 19.5938 92.9126 19.9182Z" fill="white"/>
<path d="M90.5926 42.7953C90.481 43.8742 90.5271 44.8476 90.6521 45.5401C90.7123 45.8871 90.786 46.1635 90.8291 46.3575C90.8723 46.5514 90.8938 46.6696 90.8581 46.6874C90.8224 46.7052 90.7406 46.6198 90.6246 46.4437C90.4721 46.1887 90.3501 45.9169 90.2608 45.6337C90.0228 44.9189 89.9082 43.8645 90.025 42.7359C90.0786 42.2099 90.1626 41.6874 90.2757 41.171C90.3769 40.6977 90.4825 40.2793 90.5732 39.9271C90.7614 39.2264 90.8968 38.7962 90.9749 38.8073C91.053 38.8185 91.0567 39.2777 90.969 40.0029C90.9266 40.3655 90.8611 40.7935 90.7904 41.2661C90.7198 41.7387 90.6432 42.2566 90.5926 42.7953Z" fill="white"/>
<path d="M90.9719 34.3535C91.1177 34.7224 91.1981 35.1139 91.2092 35.5104C91.2092 35.8143 91.1579 36.0023 91.0813 36.0112C91.0047 36.0202 90.9139 35.8508 90.8128 35.5833C90.7116 35.3158 90.5896 34.9502 90.4408 34.5601C90.3665 34.3654 90.2861 34.1826 90.214 34.0154L90.0116 33.5696C89.8949 33.314 89.8279 33.1379 89.8882 33.0844C89.9484 33.0309 90.1247 33.12 90.3419 33.3392C90.4669 33.4685 90.5792 33.6105 90.6752 33.7628C90.7919 33.95 90.8916 34.1478 90.9719 34.3535Z" fill="white"/>
<path d="M57.5735 36.2609C57.4896 35.3381 57.4648 34.4109 57.4991 33.4849C57.5273 33.0584 57.5452 32.6527 57.5965 32.2767C57.6196 32.0879 57.6359 31.9052 57.6635 31.7313L57.7483 31.2312C57.7959 30.9117 57.8703 30.6286 57.926 30.3789C57.9558 30.2541 57.9811 30.1374 58.0094 30.0319L58.0956 29.7444C58.2005 29.3988 58.2638 29.2108 58.2764 29.2146C58.289 29.2183 58.2496 29.4137 58.1671 29.7629L58.0971 30.0535C58.0741 30.1605 58.0547 30.2764 58.0302 30.402C57.9841 30.6524 57.9201 30.9355 57.8814 31.2535L57.807 31.7513C57.784 31.9245 57.7713 32.1065 57.752 32.293C57.7074 32.6646 57.6962 33.0695 57.6724 33.4923C57.6487 34.4097 57.6782 35.3276 57.7609 36.2416C57.8539 37.215 58.0056 38.1349 58.1685 38.9664L58.2972 39.5727C58.3173 39.6715 58.3389 39.7674 58.3634 39.8618L58.4311 40.1411C58.4765 40.3239 58.5159 40.5023 58.562 40.6709L58.6937 41.1569C58.7733 41.4682 58.8611 41.7446 58.9317 41.9898L59.0314 42.3309L59.1207 42.6162C59.2263 42.9595 59.2791 43.152 59.2694 43.1564C59.2598 43.1609 59.1809 42.9766 59.0537 42.6363L58.9488 42.3554C58.9116 42.2522 58.8744 42.1392 58.8335 42.0181C58.7532 41.7751 58.6565 41.498 58.568 41.1903L58.4244 40.7051C58.3746 40.5364 58.3314 40.3581 58.2823 40.1753L58.208 39.8952C58.1827 39.8008 58.1589 39.7042 58.1336 39.6054L57.9967 38.9976C57.8061 38.0937 57.6648 37.1802 57.5735 36.2609Z" fill="#516D7B"/>
<path d="M58.3656 32.3279C58.4346 31.8274 58.532 31.3313 58.6572 30.8418C58.7189 30.6189 58.7762 30.4027 58.8424 30.2065C58.8751 30.1084 58.9034 30.0118 58.9361 29.9219L59.0321 29.6626C59.0908 29.4969 59.1563 29.3513 59.2106 29.222C59.2381 29.1581 59.2634 29.0979 59.285 29.0436L59.3594 28.895C59.4471 28.7189 59.5014 28.6245 59.5133 28.6298C59.5416 28.6424 59.3742 29.0421 59.1578 29.7057L59.0745 29.9665C59.0455 30.0572 59.0209 30.153 58.9919 30.2511C58.9324 30.4473 58.8818 30.6598 58.8253 30.8834C58.7212 31.3293 58.6237 31.8286 58.5516 32.3547C58.4794 32.8808 58.4474 33.386 58.4311 33.846C58.4311 34.0763 58.4206 34.2918 58.4266 34.4991C58.4266 34.6017 58.4266 34.7005 58.4318 34.7963L58.4437 35.0698C58.4787 35.766 58.5359 36.1963 58.5054 36.2007C58.4928 36.2007 58.4653 36.0974 58.4258 35.9035L58.3946 35.7422C58.3842 35.6835 58.376 35.6189 58.3663 35.5498C58.3477 35.4116 58.3225 35.2526 58.3091 35.078L58.2845 34.8023C58.2763 34.7064 58.2741 34.6061 58.2682 34.5051C58.2555 34.2978 58.2562 34.0763 58.2548 33.8438C58.2629 33.3368 58.2999 32.8307 58.3656 32.3279Z" fill="#516D7B"/>
<path d="M69.2963 22.8577C69.8351 23.3902 70.3033 23.9896 70.6895 24.6411C70.8703 24.9383 71.0183 25.2355 71.1522 25.5127C71.2861 25.7898 71.3917 26.0588 71.481 26.3055C71.625 26.6937 71.7438 27.0908 71.8365 27.4944C71.9005 27.7805 71.9221 27.9402 71.9109 27.9402C71.8997 27.9402 71.8506 27.7916 71.7621 27.5107C71.6736 27.2298 71.5464 26.8323 71.353 26.3516C71.2571 26.1108 71.1395 25.8522 71.0071 25.578C70.8747 25.3039 70.7185 25.0185 70.537 24.7287C70.1501 24.097 69.6881 23.5144 69.1609 22.9937C68.8855 22.728 68.5922 22.4815 68.2832 22.2559C67.9945 22.0461 67.6918 21.8564 67.3772 21.6882L67.154 21.5723C67.0796 21.5351 67.0053 21.5032 66.9309 21.4682C66.7821 21.3939 66.6371 21.3449 66.4972 21.2862C66.3574 21.2275 66.2168 21.1851 66.0822 21.1435C65.9475 21.1019 65.8181 21.061 65.6916 21.035C65.2948 20.9356 64.8901 20.871 64.4822 20.8418C64.4078 20.8337 64.3453 20.8307 64.2895 20.8292L64.1482 20.821C64.0738 20.8151 64.0306 20.8091 64.0306 20.8032C64.0306 20.7973 64.0708 20.7898 64.1474 20.7831L64.2902 20.7727C64.355 20.7678 64.4201 20.7663 64.4851 20.7683C64.9012 20.7692 65.3159 20.8151 65.7221 20.905C65.8523 20.928 65.984 20.9696 66.1238 21.0038C66.2636 21.038 66.4042 21.09 66.5515 21.1391C66.6988 21.1881 66.8491 21.2461 66.9978 21.3159C67.0722 21.3493 67.1511 21.3813 67.2277 21.4184L67.459 21.5336C67.7835 21.7014 68.0955 21.8924 68.3925 22.105C68.7114 22.334 69.0135 22.5855 69.2963 22.8577Z" fill="#516D7B"/>
<path d="M70.122 25.5431C70.3566 26.009 70.5404 26.4989 70.6702 27.004C70.7243 27.2244 70.7666 27.4477 70.7967 27.6727C70.8093 27.779 70.8279 27.88 70.8339 27.9789L70.8488 28.2635C70.8582 28.426 70.8582 28.5891 70.8488 28.7516C70.8488 28.8259 70.8443 28.8906 70.8391 28.9515L70.8168 29.1187C70.7885 29.3193 70.7669 29.4278 70.7535 29.4263C70.7402 29.4248 70.7372 29.3126 70.7431 29.1135L70.7491 28.9478C70.7491 28.8869 70.7454 28.8215 70.7431 28.7509C70.7364 28.6097 70.7431 28.4485 70.7178 28.2724L70.6911 27.9952C70.6814 27.8994 70.6591 27.8005 70.6435 27.698C70.6159 27.4914 70.5572 27.2759 70.5036 27.0486C70.2396 26.0642 69.7676 25.1478 69.1193 24.3609C68.9653 24.1848 68.8218 24.0125 68.673 23.869C68.5986 23.7947 68.5302 23.7204 68.458 23.6573L68.2475 23.4745C68.1174 23.3526 67.9835 23.2627 67.8756 23.1773C67.8191 23.1349 67.7678 23.0926 67.7187 23.0576L67.5803 22.9662C67.4144 22.8548 67.3252 22.7872 67.3311 22.7753C67.3371 22.7634 67.439 22.8095 67.6182 22.9031L67.767 22.9818C67.8206 23.0131 67.8749 23.0509 67.9359 23.0896C68.0744 23.1759 68.2077 23.2702 68.3353 23.3719L68.5585 23.5495C68.6328 23.612 68.7072 23.6863 68.7861 23.7583C68.9522 23.9137 69.1099 24.0779 69.2584 24.2502C69.5916 24.6492 69.8811 25.0826 70.122 25.5431Z" fill="#516D7B"/>
<path d="M62.2367 62.6556C62.2255 63.4262 62.1824 64.1781 62.1125 64.9011C62.0425 65.6241 61.9362 66.3181 61.8149 66.975L61.7182 67.4602C61.6848 67.6192 61.6439 67.7752 61.6104 67.9298C61.5427 68.2389 61.4549 68.5339 61.379 68.8214C61.3389 68.9641 61.2935 69.1031 61.2519 69.2405C61.2102 69.378 61.1715 69.5132 61.1232 69.6425L60.9893 70.0252L60.9238 70.2102L60.8539 70.3885C60.7602 70.6233 60.6769 70.8485 60.5809 71.0573C60.4849 71.2661 60.4068 71.4637 60.3139 71.6421C60.2209 71.8204 60.1443 71.9898 60.0639 72.1421L59.8363 72.5531C59.8014 72.6147 59.7701 72.6734 59.7381 72.7269L59.6459 72.8755L59.4971 73.1081C59.4605 73.1745 59.4166 73.2365 59.3662 73.2931C59.3912 73.2214 59.4241 73.1525 59.4644 73.088L59.5953 72.8473L59.6801 72.6942C59.7091 72.6392 59.7381 72.5798 59.7701 72.5166L59.9814 72.0998C60.0558 71.946 60.1301 71.7766 60.2157 71.596C60.3012 71.4154 60.3786 71.217 60.4671 71.0097C60.5556 70.8024 60.6367 70.5773 60.726 70.341L60.7929 70.1627L60.8546 69.9784L60.9818 69.5972C61.0272 69.4679 61.0622 69.3327 61.1038 69.1967C61.1455 69.0607 61.1871 68.9218 61.2251 68.7798C61.2995 68.4938 61.3813 68.201 61.4482 67.8934C61.4817 67.7403 61.5226 67.585 61.5509 67.4267L61.6431 66.9445C61.7584 66.2921 61.8663 65.607 61.9265 64.8848C61.9868 64.1625 62.0344 63.4202 62.0455 62.6556C62.0546 61.2159 61.9801 59.777 61.8224 58.3459C61.6818 57.0248 61.5025 55.8411 61.3389 54.8491C61.1752 53.8571 61.0302 53.0554 60.932 52.5011C60.8836 52.2239 60.8457 52.0084 60.8227 51.862C60.8058 51.7889 60.7971 51.7142 60.7966 51.6391C60.8257 51.7091 60.8469 51.7822 60.8598 51.8568C60.8948 52.001 60.9446 52.2143 61.0041 52.4892C61.1247 53.039 61.2898 53.8371 61.4705 54.8283C61.6513 55.8195 61.8425 57.004 61.9957 58.3296C62.1647 59.7653 62.2452 61.21 62.2367 62.6556Z" fill="#516D7B"/>
<path d="M64.1511 74.6767C64.5648 74.0633 64.9228 73.4143 65.2208 72.7373L65.4067 72.2751L65.4521 72.1637C65.4662 72.1265 65.4774 72.0894 65.49 72.0515L65.5644 71.8286C65.6105 71.6837 65.6626 71.5462 65.6991 71.4102L65.801 71.0179C65.8753 70.7697 65.9073 70.5379 65.9497 70.3365C65.9691 70.2355 65.9899 70.1418 66.004 70.0549L66.036 69.8164C66.0762 69.5296 66.1044 69.3705 66.1171 69.3705C66.1297 69.3705 66.1268 69.5325 66.1097 69.8238L66.094 70.0668C66.0851 70.1552 66.0687 70.2503 66.0546 70.3529C66.0255 70.5863 65.9845 70.8182 65.9319 71.0476L65.8404 71.4481C65.8069 71.5871 65.7578 71.7275 65.7147 71.8754L65.6455 72.0983C65.6336 72.1362 65.6232 72.1726 65.609 72.2127L65.5652 72.3271L65.3837 72.8064C64.8061 74.2008 63.9417 75.4584 62.8464 76.4979L62.47 76.8367L62.3793 76.9185C62.3488 76.9452 62.3161 76.969 62.2848 76.9928L62.0996 77.1414C61.9769 77.235 61.8638 77.3309 61.7455 77.4118L61.4041 77.6414C61.2089 77.773 61.007 77.8948 60.7994 78.0055C60.7086 78.0561 60.6253 78.1051 60.5457 78.1452L60.3226 78.247C60.0563 78.3681 59.9075 78.4291 59.9016 78.4172C59.8956 78.4053 60.0347 78.3221 60.2883 78.1816L60.4996 78.0657C60.574 78.0211 60.6558 77.9676 60.7428 77.9171C60.9154 77.8057 61.12 77.6942 61.326 77.5337L61.6555 77.2974C61.7693 77.2149 61.8787 77.1169 61.9977 77.0217L62.177 76.8731C62.2067 76.8479 62.2387 76.8241 62.2685 76.7988L62.3562 76.7163L62.7215 76.3768C63.2479 75.8537 63.7264 75.2852 64.1511 74.6767Z" fill="#516D7B"/>
<path d="M64.9902 69.187C65.0386 68.8779 65.0691 68.5814 65.0877 68.311C65.0944 68.1757 65.1033 68.0464 65.1041 67.9261C65.1048 67.8057 65.1078 67.6927 65.1041 67.5895C65.1041 67.1778 65.0832 66.9207 65.1115 66.9207C65.1398 66.9207 65.2 67.1689 65.2379 67.5895C65.2469 67.6935 65.2558 67.8079 65.258 67.9313C65.2603 68.0546 65.258 68.1861 65.258 68.3251C65.2409 68.9276 65.1451 69.5254 64.9731 70.1032C64.9315 70.2355 64.8928 70.3618 64.8489 70.4747C64.805 70.5877 64.7641 70.6976 64.7232 70.7935C64.5566 71.1784 64.416 71.3968 64.3952 71.3879C64.3743 71.379 64.4696 71.1375 64.5982 70.7474C64.631 70.6501 64.6667 70.5431 64.7001 70.4272C64.7336 70.3112 64.7693 70.1872 64.805 70.0556C64.8757 69.7874 64.9374 69.4961 64.9902 69.187Z" fill="#516D7B"/>
<path d="M81.3444 29.9294C81.9975 30.0772 82.658 30.1918 83.323 30.2726C83.6302 30.3039 83.9218 30.338 84.197 30.3522C84.3339 30.3603 84.4663 30.373 84.5942 30.3774L84.9609 30.39C85.1945 30.4019 85.4073 30.3967 85.5925 30.399H85.8521L86.07 30.3938C86.3326 30.3893 86.4784 30.3938 86.4791 30.4057C86.4799 30.4175 86.3363 30.4398 86.0737 30.4673L85.8558 30.4889C85.7762 30.4948 85.6892 30.4985 85.5954 30.503C85.4087 30.5112 85.1953 30.526 84.9595 30.5223H84.5875C84.4589 30.5223 84.325 30.5126 84.1866 30.5074C83.9092 30.5 83.6139 30.471 83.3029 30.4443C81.9536 30.3078 80.6273 30.0002 79.3554 29.5289C79.0645 29.4159 78.7863 29.3119 78.5371 29.1967C78.4107 29.1402 78.2865 29.089 78.1704 29.0332L77.8379 28.8705C77.6244 28.7702 77.44 28.6625 77.2756 28.5733C77.1938 28.528 77.1171 28.4864 77.048 28.4455L76.8613 28.3296C76.6381 28.1899 76.5184 28.1067 76.525 28.0955C76.5317 28.0844 76.6641 28.1453 76.897 28.2649L77.0904 28.3652L77.3239 28.4782C77.492 28.5584 77.6795 28.6565 77.8945 28.7479L78.2292 28.8965C78.346 28.9485 78.4702 28.9953 78.5966 29.0451C78.8495 29.1536 79.1263 29.251 79.4149 29.358C80.0479 29.581 80.692 29.7718 81.3444 29.9294Z" fill="#516D7B"/>
<path d="M84.9357 29.7815C85.3998 29.8276 85.8439 29.8506 86.2485 29.8603C86.4509 29.8603 86.6428 29.8662 86.8228 29.8603C87.0028 29.8543 87.1702 29.8528 87.3234 29.8462C87.9356 29.8194 88.3142 29.7808 88.3186 29.8097C88.3231 29.8387 87.9467 29.9182 87.3331 29.9799C87.1791 29.9948 87.0102 30.0096 86.8287 30.0171C86.6472 30.0245 86.4524 30.0312 86.2478 30.0341C85.8387 30.0341 85.3879 30.0163 84.9171 29.9695C84.4462 29.9227 84.0021 29.8469 83.6012 29.7644C83.4011 29.7198 83.2114 29.679 83.0359 29.6307C82.8603 29.5824 82.6967 29.5378 82.5494 29.4925C81.9588 29.3082 81.6099 29.1484 81.6181 29.1269C81.6263 29.1053 81.99 29.2138 82.5851 29.3632C82.7339 29.4003 82.896 29.4375 83.0723 29.4776C83.2486 29.5177 83.4368 29.5519 83.6347 29.5928C84.0326 29.6656 84.4715 29.7325 84.9357 29.7815Z" fill="#516D7B"/>
<path d="M78.1883 19.7592C78.578 19.5386 78.9797 19.3387 79.3903 19.1603C79.5807 19.0815 79.7622 19.005 79.9348 18.9441C80.0211 18.9129 80.1036 18.8809 80.1847 18.8542L80.4175 18.7799C81.0126 18.5934 81.3942 18.528 81.3994 18.5503C81.4046 18.5726 81.0394 18.69 80.4614 18.9069L80.2383 18.9931C80.1594 19.0228 80.0791 19.0585 79.9951 19.0927C79.8262 19.1596 79.6507 19.2413 79.4639 19.3223C79.092 19.4932 78.6941 19.6938 78.285 19.9264C77.8758 20.159 77.5017 20.4034 77.1692 20.6353C77.0041 20.7542 76.8449 20.8641 76.7013 20.9756C76.6269 21.0306 76.5585 21.0818 76.4923 21.1346L76.3034 21.2832C75.8229 21.6711 75.5409 21.9311 75.5201 21.9103C75.4993 21.8895 75.7529 21.5997 76.2163 21.1814L76.4001 21.0194C76.464 20.9637 76.534 20.9087 76.6046 20.85C76.7452 20.7319 76.9022 20.6152 77.0673 20.4911C77.4281 20.2277 77.8022 19.9834 78.1883 19.7592Z" fill="#516D7B"/>
<path d="M80.1237 19.5474C80.3662 19.4404 80.6146 19.3462 80.8675 19.2651C81.0751 19.1996 81.2856 19.1448 81.4983 19.1009C81.8621 19.0266 82.0934 19.0162 82.0934 19.0399C82.1045 19.0972 81.209 19.2629 80.1951 19.7213C79.1812 20.1798 78.4523 20.7192 78.4173 20.6732C78.4024 20.6546 78.5661 20.4911 78.8636 20.2704C79.0392 20.1418 79.2207 20.0223 79.4081 19.9123C79.6402 19.7781 79.879 19.6563 80.1237 19.5474Z" fill="#516D7B"/>
<path d="M96.7583 41.3999C96.3573 43.2703 96.1892 45.183 96.2576 47.0946C96.2844 47.828 96.3402 48.4202 96.3789 48.8296C96.4176 49.2391 96.4451 49.4657 96.4317 49.4672C96.4094 49.4161 96.3953 49.362 96.3893 49.3067C96.3685 49.2004 96.338 49.0429 96.306 48.8393C96.245 48.4314 96.1684 47.8384 96.1245 47.1006C96.0144 45.1754 96.1647 43.2442 96.5708 41.359C96.6935 40.8084 96.8274 40.2734 96.9799 39.7644C97.1324 39.2554 97.2849 38.768 97.4262 38.3028C97.5676 37.8377 97.6955 37.3948 97.7981 36.9757C97.8524 36.7669 97.8919 36.5633 97.935 36.3679C97.9782 36.1725 98.0094 35.9838 98.0302 35.8017C98.1173 35.2306 98.1359 34.6511 98.086 34.0756C98.0726 33.8713 98.0429 33.7145 98.0287 33.6075C98.0161 33.5529 98.0116 33.4968 98.0161 33.441C98.0406 33.4909 98.0577 33.5443 98.0667 33.5993C98.1083 33.7528 98.1396 33.9089 98.1597 34.0667C98.2392 34.6477 98.24 35.2367 98.1634 35.8181C98.1463 36.0031 98.1091 36.1933 98.0793 36.3939C98.0496 36.5946 98.0049 36.7996 97.9514 37.0107C97.8562 37.4357 97.7327 37.883 97.5958 38.3482L97.1614 39.812C97.0112 40.3239 96.8802 40.8537 96.7583 41.3999Z" fill="#516D7B"/>
<path d="M97.6821 70.5334C98.0065 71.4371 98.3821 72.3214 98.8083 73.1817L99.1059 73.7553C99.1988 73.9433 99.3074 74.1164 99.4034 74.2881C99.4993 74.4597 99.5923 74.6262 99.689 74.7815L99.9687 75.2273C100.141 75.5149 100.32 75.7601 100.468 75.9815C100.542 76.0915 100.611 76.1955 100.677 76.2884L100.861 76.5403C101.084 76.8442 101.2 77.0158 101.19 77.024C101.18 77.0322 101.041 76.8754 100.803 76.5849L100.605 76.3419C100.534 76.2512 100.462 76.1502 100.382 76.0447C100.225 75.8277 100.037 75.5862 99.8564 75.3016L99.5648 74.8595C99.4644 74.7049 99.3707 74.5385 99.2673 74.3683C99.1639 74.1982 99.056 74.0243 98.9593 73.8363L98.6514 73.2619C97.7625 71.5381 97.1161 69.7 96.73 67.7998L96.611 67.1585C96.5686 66.9512 96.5478 66.7468 96.518 66.5507C96.4883 66.3545 96.4608 66.165 96.4436 65.9815L96.3945 65.4547C96.3574 65.1196 96.3521 64.8142 96.3395 64.5467C96.3343 64.4129 96.3276 64.2888 96.3261 64.1751V63.8616C96.3313 63.4848 96.3402 63.2768 96.3529 63.2768C96.3655 63.2768 96.3819 63.4848 96.3998 63.8593L96.4131 64.1714C96.4198 64.2851 96.4325 64.4092 96.4422 64.543C96.4652 64.8082 96.4801 65.1114 96.5247 65.4435L96.5857 65.9637C96.6073 66.145 96.6422 66.3352 96.6713 66.5269C96.7003 66.7186 96.7278 66.9237 96.7732 67.1288L96.8996 67.7633C97.1064 68.701 97.3682 69.6259 97.6821 70.5334Z" fill="#516D7B"/>
<path d="M96.1141 66.9534C96.2168 67.455 96.3313 67.929 96.4436 68.3585C96.5024 68.5725 96.5559 68.7761 96.6132 68.9656C96.6705 69.1551 96.7218 69.3312 96.7717 69.4917C96.9718 70.1329 97.1109 70.526 97.0841 70.5371C97.0573 70.5483 96.8788 70.1693 96.6445 69.5348C96.5864 69.3757 96.524 69.2019 96.463 69.0146C96.402 68.8274 96.3395 68.6223 96.2755 68.4076C96.1528 67.9773 96.0323 67.4995 95.9289 66.9958C95.8255 66.492 95.7519 66.003 95.6968 65.5587C95.6723 65.3358 95.647 65.1255 95.6328 64.9271C95.6187 64.7287 95.6046 64.5444 95.5956 64.375C95.5637 63.6996 95.586 63.2812 95.609 63.2805C95.6321 63.2797 95.6633 63.6959 95.7295 64.3646C95.7466 64.5318 95.7645 64.7146 95.789 64.9107C95.8136 65.1069 95.8404 65.3157 95.8701 65.5357C95.9333 65.9703 96.0137 66.4511 96.1141 66.9534Z" fill="#516D7B"/>
<path d="M90.0838 74.8602C90.4624 75.1418 90.8648 75.39 91.2865 75.6033C91.4844 75.6946 91.6696 75.7875 91.8519 75.8544C91.9426 75.8893 92.0282 75.9287 92.1137 75.9562L92.3599 76.0372C92.5154 76.0937 92.6619 76.1256 92.7884 76.1613C92.8523 76.1784 92.9111 76.1962 92.9654 76.2088L93.1142 76.2408C93.2957 76.2809 93.3961 76.3092 93.3946 76.3225C93.3931 76.3359 93.2897 76.3322 93.1023 76.3136L92.9468 76.2973C92.8903 76.2891 92.8293 76.2765 92.7638 76.2646C92.6136 76.2393 92.464 76.2066 92.3175 76.1657L92.0624 76.0914C91.9739 76.0662 91.8846 76.0305 91.7909 75.9978C91.6019 75.9361 91.4093 75.8492 91.2047 75.7571C90.3248 75.3432 89.5407 74.7495 88.9048 74.0139C88.7634 73.8415 88.6251 73.6802 88.515 73.5145C88.4585 73.4328 88.4004 73.357 88.3521 73.279L88.2152 73.0561C88.1371 72.9266 88.0657 72.7932 88.001 72.6563C87.972 72.5961 87.943 72.5411 87.9199 72.4891L87.8626 72.3405C87.7949 72.1652 87.7637 72.0663 87.7756 72.0619C87.7875 72.0574 87.8426 72.1458 87.9296 72.3093L88.004 72.446C88.0315 72.4951 88.0642 72.5471 88.0977 72.6036C88.1661 72.7158 88.2361 72.848 88.3327 72.9825L88.4771 73.1973C88.5276 73.2716 88.5879 73.3459 88.6459 73.4202C88.759 73.5777 88.8981 73.7315 89.0401 73.8965C89.36 74.247 89.7089 74.5697 90.0838 74.8602Z" fill="#516D7B"/>
<path d="M92.8315 75.2228C93.3009 75.4182 93.7807 75.5854 94.2701 75.7236C94.497 75.7823 94.712 75.8418 94.9165 75.8819C95.0184 75.9035 95.1166 75.9272 95.2141 75.9443L95.4885 75.9919C95.6633 76.0261 95.8233 76.0424 95.9631 76.0662L96.158 76.0937L96.3231 76.1115C96.521 76.1338 96.6311 76.1524 96.6311 76.1658C96.6311 76.1791 96.5195 76.1851 96.3187 76.1851H96.1513C96.0903 76.1851 96.0241 76.1776 95.9527 76.1732C95.8106 76.162 95.6477 76.1554 95.4692 76.1293L95.1888 76.0929C95.0913 76.0796 94.9917 76.0587 94.8868 76.0402C94.6778 76.006 94.4583 75.951 94.2262 75.8968C93.2228 75.6404 92.264 75.234 91.3833 74.6893C91.1832 74.5608 90.9913 74.4404 90.8217 74.3141C90.7361 74.2517 90.6513 74.1944 90.5747 74.1335L90.3516 73.9574C90.2095 73.8474 90.0912 73.7345 89.9841 73.6409C89.9313 73.5926 89.8815 73.5487 89.8353 73.5064L89.7186 73.3867C89.5795 73.2419 89.5066 73.1579 89.5162 73.149C89.5259 73.1401 89.6152 73.2054 89.7691 73.3325L89.8963 73.4388L90.0518 73.5599C90.1641 73.6461 90.2869 73.7501 90.4326 73.8512L90.6558 74.0154C90.7339 74.0726 90.8194 74.1261 90.9057 74.1848C91.0768 74.3044 91.2687 74.4174 91.4681 74.54C91.9084 74.7948 92.3637 75.0229 92.8315 75.2228Z" fill="#516D7B"/>
<path d="M82.1834 61.1531C82.1589 63.1296 80.5529 64.7777 78.5549 64.7777C76.557 64.7777 74.951 63.1296 74.9265 61.1531C74.919 60.5795 74.0264 60.578 74.0339 61.1531C74.0426 62.0779 74.3316 62.9783 74.8625 63.7358C75.3936 64.4933 76.1419 65.0723 77.0092 65.3967C78.7588 66.0476 80.8177 65.4918 82.0101 64.0592C82.6907 63.2426 83.0671 62.2157 83.076 61.1531C83.0834 60.5795 82.1908 60.5788 82.1834 61.1531Z" fill="#385868"/>
<path d="M68.4751 79.0369C68.6433 80.7341 69.5567 82.2469 70.8711 83.3169C72.3587 84.5281 74.2139 85.1121 76.0943 85.361C79.8492 85.8574 84.0705 85.442 87.2393 83.2062C88.8125 82.0983 90.0659 80.6115 90.7659 78.8118C90.9741 78.2768 90.1113 78.0449 89.9052 78.5747C88.7151 81.6354 85.7159 83.5339 82.6208 84.2405C80.8304 84.6492 78.9648 84.7138 77.1372 84.5741C75.384 84.4404 73.5891 84.06 72.0887 83.1022C70.6821 82.2038 69.5351 80.7311 69.367 79.0332C69.3112 78.4677 68.4179 78.4618 68.4744 79.0332L68.4751 79.0369Z" fill="#385868"/>
<path d="M52.655 91.7951H107.434C107.992 91.7951 108.527 92.0165 108.921 92.4104C109.315 92.8042 109.537 93.3384 109.537 93.8957V129.047C109.537 129.379 109.404 129.7 109.169 129.935C108.933 130.171 108.612 130.303 108.279 130.303H51.81C51.4765 130.303 51.1565 130.171 50.9206 129.935C50.6847 129.7 50.5522 129.379 50.5522 129.047V93.8957C50.5522 93.3384 50.7738 92.8042 51.1681 92.4104C51.5625 92.0165 52.0974 91.7951 52.655 91.7951Z" fill="#256075"/>
<path d="M107.401 91.7104H53.0128C51.7431 91.7104 50.7144 92.6808 50.7144 93.8771V95.0207C50.7144 93.8244 51.7431 92.8539 53.0128 92.8539H107.401C108.671 92.8539 109.7 93.8244 109.7 95.0207V93.8771C109.7 92.6801 108.671 91.7104 107.401 91.7104Z" fill="#347888"/>
<path d="M110.083 130.674H50.341V93.8385C50.3416 93.198 50.5964 92.5842 51.0495 92.1317C51.5025 91.6792 52.1169 91.4243 52.7578 91.4236H107.667C108.307 91.4243 108.922 91.6792 109.375 92.1317C109.828 92.5842 110.083 93.198 110.083 93.8385L110.083 130.674ZM51.0849 129.931H109.339V93.8385C109.338 93.3956 109.162 92.9706 108.849 92.657C108.535 92.3435 108.109 92.1674 107.666 92.1666H52.7578C52.3141 92.1674 51.8888 92.3435 51.5752 92.657C51.2616 92.9706 51.0852 93.3956 51.0849 93.8385V129.931Z" fill="#385868"/>
<path d="M38.1776 126.262C37.2027 126.259 36.2505 125.968 35.4412 125.425C34.6319 124.882 34.0019 124.111 33.6307 123.211C33.2596 122.31 33.1639 121.32 33.3558 120.365C33.5477 119.411 34.0187 118.534 34.709 117.846C35.3994 117.158 36.2783 116.69 37.2347 116.502C38.1911 116.313 39.1821 116.411 40.0825 116.785C40.983 117.158 41.7525 117.789 42.2939 118.599C42.8353 119.409 43.1242 120.361 43.1242 121.335C43.1208 122.644 42.5981 123.896 41.6708 124.821C40.7434 125.744 39.4872 126.263 38.1776 126.262ZM38.1776 117.746C37.4675 117.749 36.7741 117.962 36.1849 118.358C35.5959 118.754 35.1375 119.315 34.8677 119.972C34.5979 120.628 34.5288 121.35 34.6691 122.045C34.8094 122.74 35.1528 123.379 35.656 123.879C36.1592 124.38 36.7996 124.72 37.4963 124.858C38.1931 124.995 38.9149 124.923 39.5707 124.651C40.2265 124.379 40.7868 123.918 41.181 123.328C41.5751 122.738 41.7854 122.045 41.7853 121.335C41.7821 120.382 41.4005 119.469 40.7242 118.795C40.0479 118.123 39.1321 117.745 38.1776 117.746Z" fill="#385868"/>
<path d="M40.2233 117.676V119.319C39.777 124.249 35.3519 128.12 29.9583 128.12C24.5647 128.12 20.1395 124.249 19.6932 119.319V117.676C19.736 117.197 19.8169 116.723 19.935 116.258C19.9853 116.059 20.1004 115.883 20.2621 115.757C20.4237 115.631 20.6227 115.563 20.8276 115.562H39.086C39.291 115.563 39.4899 115.631 39.6515 115.757C39.8131 115.883 39.9282 116.059 39.9786 116.258C40.0977 116.723 40.1795 117.197 40.2233 117.676Z" fill="#68B9E1"/>
<path d="M40.2233 115.934C40.2235 116.158 40.2005 116.383 40.1548 116.603H28.6818C28.6818 117.916 27.6918 118.98 26.4704 118.98H26.332C26.0376 118.978 25.7468 118.916 25.4779 118.796C25.209 118.676 24.968 118.502 24.7699 118.284C24.3493 117.826 24.1178 117.225 24.1221 116.603H19.836C19.7904 116.383 19.7674 116.158 19.7676 115.934H40.2233Z" fill="#ACD8F8"/>
<path d="M30.0326 128.491C27.3451 128.491 24.7767 127.553 22.8018 125.849C20.8269 124.145 19.6226 121.843 19.3972 119.353V119.319V117.642C19.4425 117.144 19.5273 116.651 19.6508 116.166C19.7214 115.888 19.8825 115.641 20.1091 115.464C20.3356 115.288 20.6146 115.192 20.902 115.191H39.1603C39.4483 115.191 39.7281 115.287 39.9554 115.463C40.1827 115.64 40.3445 115.888 40.4152 116.166C40.5385 116.651 40.6229 117.144 40.6681 117.642V117.676V119.353C40.4449 121.843 39.2332 124.15 37.2635 125.849C35.2938 127.549 32.7201 128.491 30.0326 128.491ZM20.1395 119.302C20.3515 121.593 21.4688 123.717 23.2882 125.287C25.1285 126.874 27.5237 127.748 30.0326 127.748C32.5416 127.748 34.9375 126.875 36.7771 125.287C38.5958 123.717 39.7138 121.593 39.9257 119.302V117.693C39.8836 117.239 39.806 116.791 39.6937 116.35C39.6635 116.231 39.5948 116.126 39.4983 116.051C39.4016 115.975 39.2828 115.935 39.1603 115.935H20.902C20.7795 115.935 20.6606 115.975 20.564 116.051C20.4674 116.126 20.3987 116.231 20.3686 116.35C20.2562 116.791 20.1787 117.239 20.1366 117.693L20.1395 119.302Z" fill="#385868"/>
<path d="M18.9494 127.08H40.9671C40.9671 127.887 40.6458 128.662 40.0738 129.234C39.5019 129.805 38.7262 130.126 37.9174 130.126H21.9991C21.1903 130.126 20.4146 129.805 19.8427 129.234C19.2707 128.662 18.9494 127.887 18.9494 127.08Z" fill="#68B9E1"/>
<path d="M40.5207 127.228C40.5199 127.453 40.4949 127.677 40.4464 127.897H28.5181C28.5181 129.21 27.4879 130.275 26.2181 130.275H26.0746C25.7704 130.274 25.4695 130.212 25.1899 130.093C24.9104 129.973 24.6579 129.798 24.4478 129.579C24.0134 129.127 23.7719 128.523 23.7746 127.897H19.3175C19.2689 127.677 19.244 127.453 19.2431 127.228H40.5207Z" fill="#ACD8F8"/>
<path d="M37.9918 130.498H22.0735C21.1663 130.497 20.2966 130.137 19.6552 129.495C19.0137 128.855 18.6528 127.986 18.6519 127.08V126.708H41.4134V127.08C41.4125 127.986 41.0516 128.855 40.4101 129.495C39.7687 130.137 38.8989 130.497 37.9918 130.498ZM19.4217 127.451C19.5122 128.089 19.8301 128.674 20.3172 129.097C20.8044 129.521 21.428 129.754 22.0735 129.755H37.9918C38.6373 129.754 39.2608 129.521 39.7479 129.097C40.235 128.674 40.553 128.089 40.6436 127.451H19.4217Z" fill="#385868"/>
<path d="M40.2233 117.754H34.7932V118.274H40.2233V117.754Z" fill="#385868"/>
<g opacity="0.4">
<path opacity="0.4" d="M70.3408 55.4866C71.9335 55.4866 73.2247 54.788 73.2247 53.9262C73.2247 53.0644 71.9335 52.3658 70.3408 52.3658C68.7481 52.3658 67.4569 53.0644 67.4569 53.9262C67.4569 54.788 68.7481 55.4866 70.3408 55.4866Z" fill="white"/>
<path opacity="0.4" d="M86.7595 55.4866C88.3521 55.4866 89.6434 54.788 89.6434 53.9262C89.6434 53.0644 88.3521 52.3658 86.7595 52.3658C85.167 52.3658 83.8757 53.0644 83.8757 53.9262C83.8757 54.788 85.167 55.4866 86.7595 55.4866Z" fill="white"/>
</g>
</g>
<defs>
<clipPath id="clip0_7_65">
<rect width="151" height="131" fill="white"/>
</clipPath>
</defs>
</svg>
