<svg width="160" height="42" viewBox="0 0 160 42" fill="none" xmlns="http://www.w3.org/2000/svg">
<g clip-path="url(#clip0_211_2)">
<path d="M137.093 24.8079L135.102 22.7583C134.554 22.2685 134.361 21.4693 134.547 20.741C134.741 20.1673 134.999 19.4197 135.366 18.5624H128.547C127.991 18.5624 127.478 18.266 127.203 17.7826C127.068 17.5455 126.998 17.2769 127 17.0041C127.002 16.7312 127.077 16.4639 127.216 16.2292L130.598 10.5251C131.434 9.11361 132.951 8.19193 134.593 8.19193H139.891C140.045 7.99212 140.2 7.75365 140.355 7.52162C145.633 -0.262388 153.497 -0.524841 158.189 0.339927C158.943 0.477792 159.523 1.0589 159.658 1.80849C160.522 6.50326 160.264 14.3665 152.478 19.6452C152.253 19.7999 151.95 19.9546 151.75 20.0513V25.4074C151.75 27.0509 150.886 28.5656 149.475 29.4035L143.771 32.7808C143.294 33.0644 142.701 33.0708 142.217 32.8001C141.734 32.523 141.438 32.0074 141.438 31.4531V24.5437C140.529 24.8531 139.736 25.1173 139.137 25.3107C138.415 25.5427 137.628 25.3429 137.093 24.8079V24.8079ZM151.75 10.7701C153.174 10.7701 154.328 9.67435 154.328 8.19193C154.328 6.82552 153.174 5.6138 151.75 5.6138C150.326 5.6138 149.172 6.82552 149.172 8.19193C149.172 9.67435 150.326 10.7701 151.75 10.7701Z" fill="#676767"/>
</g>
<path d="M5.634 24.216C4.638 24.216 3.672 24.084 2.736 23.82C1.812 23.544 1.068 23.19 0.504 22.758L1.494 20.562C2.034 20.958 2.676 21.276 3.42 21.516C4.164 21.756 4.908 21.876 5.652 21.876C6.48 21.876 7.092 21.756 7.488 21.516C7.884 21.264 8.082 20.934 8.082 20.526C8.082 20.226 7.962 19.98 7.722 19.788C7.494 19.584 7.194 19.422 6.822 19.302C6.462 19.182 5.97 19.05 5.346 18.906C4.386 18.678 3.6 18.45 2.988 18.222C2.376 17.994 1.848 17.628 1.404 17.124C0.972 16.62 0.756 15.948 0.756 15.108C0.756 14.376 0.954 13.716 1.35 13.128C1.746 12.528 2.34 12.054 3.132 11.706C3.936 11.358 4.914 11.184 6.066 11.184C6.87 11.184 7.656 11.28 8.424 11.472C9.192 11.664 9.864 11.94 10.44 12.3L9.54 14.514C8.376 13.854 7.212 13.524 6.048 13.524C5.232 13.524 4.626 13.656 4.23 13.92C3.846 14.184 3.654 14.532 3.654 14.964C3.654 15.396 3.876 15.72 4.32 15.936C4.776 16.14 5.466 16.344 6.39 16.548C7.35 16.776 8.136 17.004 8.748 17.232C9.36 17.46 9.882 17.82 10.314 18.312C10.758 18.804 10.98 19.47 10.98 20.31C10.98 21.03 10.776 21.69 10.368 22.29C9.972 22.878 9.372 23.346 8.568 23.694C7.764 24.042 6.786 24.216 5.634 24.216ZM18.1385 14.46C19.0265 14.46 19.8305 14.664 20.5505 15.072C21.2705 15.468 21.8345 16.032 22.2425 16.764C22.6505 17.496 22.8545 18.33 22.8545 19.266C22.8545 20.214 22.6505 21.054 22.2425 21.786C21.8345 22.518 21.2705 23.088 20.5505 23.496C19.8425 23.892 19.0385 24.09 18.1385 24.09C17.3705 24.09 16.6745 23.934 16.0505 23.622C15.4385 23.298 14.9345 22.83 14.5385 22.218V27.492H13.2605V14.532H14.4845V16.404C14.8685 15.78 15.3725 15.3 15.9965 14.964C16.6325 14.628 17.3465 14.46 18.1385 14.46ZM18.0485 22.956C18.7085 22.956 19.3085 22.806 19.8485 22.506C20.3885 22.194 20.8085 21.756 21.1085 21.192C21.4205 20.628 21.5765 19.986 21.5765 19.266C21.5765 18.546 21.4205 17.91 21.1085 17.358C20.8085 16.794 20.3885 16.356 19.8485 16.044C19.3085 15.732 18.7085 15.576 18.0485 15.576C17.3765 15.576 16.7705 15.732 16.2305 16.044C15.7025 16.356 15.2825 16.794 14.9705 17.358C14.6705 17.91 14.5205 18.546 14.5205 19.266C14.5205 19.986 14.6705 20.628 14.9705 21.192C15.2825 21.756 15.7025 22.194 16.2305 22.506C16.7705 22.806 17.3765 22.956 18.0485 22.956ZM28.719 14.46C29.955 14.46 30.903 14.772 31.563 15.396C32.223 16.008 32.553 16.92 32.553 18.132V24H31.329V22.524C31.041 23.016 30.615 23.4 30.051 23.676C29.499 23.952 28.839 24.09 28.071 24.09C27.015 24.09 26.175 23.838 25.551 23.334C24.927 22.83 24.615 22.164 24.615 21.336C24.615 20.532 24.903 19.884 25.479 19.392C26.067 18.9 26.997 18.654 28.269 18.654H31.275V18.078C31.275 17.262 31.047 16.644 30.591 16.224C30.135 15.792 29.469 15.576 28.593 15.576C27.993 15.576 27.417 15.678 26.865 15.882C26.313 16.074 25.839 16.344 25.443 16.692L24.867 15.738C25.347 15.33 25.923 15.018 26.595 14.802C27.267 14.574 27.975 14.46 28.719 14.46ZM28.269 23.082C28.989 23.082 29.607 22.92 30.123 22.596C30.639 22.26 31.023 21.78 31.275 21.156V19.608H28.305C26.685 19.608 25.875 20.172 25.875 21.3C25.875 21.852 26.085 22.29 26.505 22.614C26.925 22.926 27.513 23.082 28.269 23.082ZM39.9833 24.09C39.0473 24.09 38.2073 23.886 37.4633 23.478C36.7313 23.07 36.1553 22.5 35.7353 21.768C35.3153 21.024 35.1053 20.19 35.1053 19.266C35.1053 18.342 35.3153 17.514 35.7353 16.782C36.1553 16.05 36.7313 15.48 37.4633 15.072C38.2073 14.664 39.0473 14.46 39.9833 14.46C40.7993 14.46 41.5253 14.622 42.1613 14.946C42.8093 15.258 43.3193 15.72 43.6913 16.332L42.7373 16.98C42.4253 16.512 42.0293 16.164 41.5493 15.936C41.0693 15.696 40.5473 15.576 39.9833 15.576C39.2993 15.576 38.6813 15.732 38.1293 16.044C37.5893 16.344 37.1633 16.776 36.8513 17.34C36.5513 17.904 36.4013 18.546 36.4013 19.266C36.4013 19.998 36.5513 20.646 36.8513 21.21C37.1633 21.762 37.5893 22.194 38.1293 22.506C38.6813 22.806 39.2993 22.956 39.9833 22.956C40.5473 22.956 41.0693 22.842 41.5493 22.614C42.0293 22.386 42.4253 22.038 42.7373 21.57L43.6913 22.218C43.3193 22.83 42.8093 23.298 42.1613 23.622C41.5133 23.934 40.7873 24.09 39.9833 24.09ZM54.2877 19.662H46.3677C46.4397 20.646 46.8177 21.444 47.5017 22.056C48.1857 22.656 49.0497 22.956 50.0937 22.956C50.6817 22.956 51.2217 22.854 51.7137 22.65C52.2057 22.434 52.6317 22.122 52.9917 21.714L53.7117 22.542C53.2917 23.046 52.7637 23.43 52.1277 23.694C51.5037 23.958 50.8137 24.09 50.0577 24.09C49.0857 24.09 48.2217 23.886 47.4657 23.478C46.7217 23.058 46.1397 22.482 45.7197 21.75C45.2997 21.018 45.0897 20.19 45.0897 19.266C45.0897 18.342 45.2877 17.514 45.6837 16.782C46.0917 16.05 46.6437 15.48 47.3397 15.072C48.0477 14.664 48.8397 14.46 49.7157 14.46C50.5917 14.46 51.3777 14.664 52.0737 15.072C52.7697 15.48 53.3157 16.05 53.7117 16.782C54.1077 17.502 54.3057 18.33 54.3057 19.266L54.2877 19.662ZM49.7157 15.558C48.8037 15.558 48.0357 15.852 47.4117 16.44C46.7997 17.016 46.4517 17.772 46.3677 18.708H53.0817C52.9977 17.772 52.6437 17.016 52.0197 16.44C51.4077 15.852 50.6397 15.558 49.7157 15.558Z" fill="#676767"/>
<path d="M59.229 13.776H55.197V11.4H66.177V13.776H62.145V24H59.229V13.776ZM69.258 16.386C69.558 15.75 70.002 15.27 70.59 14.946C71.19 14.622 71.928 14.46 72.804 14.46V15.702L72.498 15.684C71.502 15.684 70.722 15.99 70.158 16.602C69.594 17.214 69.312 18.072 69.312 19.176V24H68.034V14.532H69.258V16.386ZM78.4124 14.46C79.6484 14.46 80.5964 14.772 81.2564 15.396C81.9164 16.008 82.2464 16.92 82.2464 18.132V24H81.0224V22.524C80.7344 23.016 80.3084 23.4 79.7444 23.676C79.1924 23.952 78.5324 24.09 77.7644 24.09C76.7084 24.09 75.8684 23.838 75.2444 23.334C74.6204 22.83 74.3084 22.164 74.3084 21.336C74.3084 20.532 74.5964 19.884 75.1724 19.392C75.7604 18.9 76.6904 18.654 77.9624 18.654H80.9684V18.078C80.9684 17.262 80.7404 16.644 80.2844 16.224C79.8284 15.792 79.1624 15.576 78.2864 15.576C77.6864 15.576 77.1104 15.678 76.5584 15.882C76.0064 16.074 75.5324 16.344 75.1364 16.692L74.5604 15.738C75.0404 15.33 75.6164 15.018 76.2884 14.802C76.9604 14.574 77.6684 14.46 78.4124 14.46ZM77.9624 23.082C78.6824 23.082 79.3004 22.92 79.8164 22.596C80.3324 22.26 80.7164 21.78 80.9684 21.156V19.608H77.9984C76.3784 19.608 75.5684 20.172 75.5684 21.3C75.5684 21.852 75.7784 22.29 76.1984 22.614C76.6184 22.926 77.2064 23.082 77.9624 23.082ZM89.6767 24.09C88.7407 24.09 87.9007 23.886 87.1567 23.478C86.4247 23.07 85.8487 22.5 85.4287 21.768C85.0087 21.024 84.7987 20.19 84.7987 19.266C84.7987 18.342 85.0087 17.514 85.4287 16.782C85.8487 16.05 86.4247 15.48 87.1567 15.072C87.9007 14.664 88.7407 14.46 89.6767 14.46C90.4927 14.46 91.2187 14.622 91.8547 14.946C92.5027 15.258 93.0127 15.72 93.3847 16.332L92.4307 16.98C92.1187 16.512 91.7227 16.164 91.2427 15.936C90.7627 15.696 90.2407 15.576 89.6767 15.576C88.9927 15.576 88.3747 15.732 87.8227 16.044C87.2827 16.344 86.8567 16.776 86.5447 17.34C86.2447 17.904 86.0947 18.546 86.0947 19.266C86.0947 19.998 86.2447 20.646 86.5447 21.21C86.8567 21.762 87.2827 22.194 87.8227 22.506C88.3747 22.806 88.9927 22.956 89.6767 22.956C90.2407 22.956 90.7627 22.842 91.2427 22.614C91.7227 22.386 92.1187 22.038 92.4307 21.57L93.3847 22.218C93.0127 22.83 92.5027 23.298 91.8547 23.622C91.2067 23.934 90.4807 24.09 89.6767 24.09ZM99.2647 19.248L97.0327 21.3V24H95.7547V10.644H97.0327V19.698L102.685 14.532H104.269L100.219 18.402L104.647 24H103.081L99.2647 19.248ZM106.277 11.4H109.193V24H106.277V11.4ZM114.793 13.776H110.761V11.4H121.741V13.776H117.709V24H114.793V13.776Z" fill="#676767"/>
<defs>
<clipPath id="clip0_211_2">
<rect width="33" height="33" fill="white" transform="translate(127)"/>
</clipPath>
</defs>
</svg>
