<svg width="26" height="27" viewBox="0 0 26 27" fill="none" xmlns="http://www.w3.org/2000/svg">
<path d="M23.7251 21.0975L23.4795 20.8725C22.7829 20.2279 22.1732 19.4888 21.6668 18.675C21.1137 17.5519 20.7822 16.3254 20.6918 15.0675V11.3625C20.6966 9.3867 20.0064 7.47709 18.751 5.99247C17.4955 4.50784 15.7613 3.55038 13.874 3.29999V2.33249C13.874 2.06694 13.7724 1.81227 13.5916 1.6245C13.4108 1.43673 13.1655 1.33124 12.9098 1.33124C12.6541 1.33124 12.4089 1.43673 12.2281 1.6245C12.0472 1.81227 11.9457 2.06694 11.9457 2.33249V3.31499C10.0753 3.58343 8.36197 4.54668 7.12304 6.02632C5.88411 7.50596 5.20352 9.40172 5.20733 11.3625V15.0675C5.11687 16.3254 4.78539 17.5519 4.23233 18.675C3.73463 19.4867 3.13469 20.2258 2.44844 20.8725L2.20288 21.0975V23.2125H23.7251V21.0975Z" fill="#4F4F4F"/>
<path d="M11.0645 24C11.1278 24.4754 11.3546 24.911 11.7031 25.2262C12.0516 25.5415 12.4981 25.7151 12.9603 25.7151C13.4224 25.7151 13.869 25.5415 14.2175 25.2262C14.5659 24.911 14.7928 24.4754 14.8561 24H11.0645Z" fill="#4F4F4F"/>
</svg>
