<svg width="101" height="102" viewBox="0 0 101 102" fill="none" xmlns="http://www.w3.org/2000/svg">
<path d="M50.6398 0.806202C52.3093 0.806202 53.9105 1.46943 55.091 2.64998C56.2716 3.83054 56.9348 5.43171 56.9348 7.10126V44.8716H94.7052C96.3747 44.8716 97.9759 45.5348 99.1565 46.7154C100.337 47.896 101 49.4971 101 51.1667C101 52.8362 100.337 54.4374 99.1565 55.618C97.9759 56.7985 96.3747 57.4617 94.7052 57.4617H56.9348V95.2321C56.9348 96.9016 56.2716 98.5028 55.091 99.6834C53.9105 100.864 52.3093 101.527 50.6398 101.527C48.9702 101.527 47.369 100.864 46.1885 99.6834C45.0079 98.5028 44.3447 96.9016 44.3447 95.2321V57.4617H6.57436C4.9048 57.4617 3.30363 56.7985 2.12308 55.618C0.942526 54.4374 0.279297 52.8362 0.279297 51.1667C0.279297 49.4971 0.942526 47.896 2.12308 46.7154C3.30363 45.5348 4.9048 44.8716 6.57436 44.8716H44.3447V7.10126C44.3447 5.43171 45.0079 3.83054 46.1885 2.64998C47.369 1.46943 48.9702 0.806202 50.6398 0.806202V0.806202Z" fill="white"/>
</svg>
