<svg width="93" height="87" viewBox="0 0 93 87" fill="none" xmlns="http://www.w3.org/2000/svg">
<path d="M19.53 69.6H28.83C29.3415 69.6 29.76 69.2085 29.76 68.73V18.27C29.76 17.7915 29.3415 17.4 28.83 17.4H19.53C19.0185 17.4 18.6 17.7915 18.6 18.27V68.73C18.6 69.2085 19.0185 69.6 19.53 69.6ZM41.85 39.15H51.15C51.6615 39.15 52.08 38.7585 52.08 38.28V18.27C52.08 17.7915 51.6615 17.4 51.15 17.4H41.85C41.3385 17.4 40.92 17.7915 40.92 18.27V38.28C40.92 38.7585 41.3385 39.15 41.85 39.15ZM64.17 46.98H73.47C73.9815 46.98 74.4 46.5885 74.4 46.11V18.27C74.4 17.7915 73.9815 17.4 73.47 17.4H64.17C63.6585 17.4 63.24 17.7915 63.24 18.27V46.11C63.24 46.5885 63.6585 46.98 64.17 46.98ZM89.28 0H3.72C1.66237 0 0 1.55513 0 3.48V83.52C0 85.4449 1.66237 87 3.72 87H89.28C91.3376 87 93 85.4449 93 83.52V3.48C93 1.55513 91.3376 0 89.28 0ZM84.63 79.17H8.37V7.83H84.63V79.17Z" fill="white"/>
</svg>
