<svg width="229" height="123" viewBox="0 0 229 123" fill="none" xmlns="http://www.w3.org/2000/svg">
<g clip-path="url(#clip0_1_3)">
<g opacity="0.3">
<path opacity="0.3" d="M51.4103 42.5232V111.485C51.4103 112.172 51.2746 112.853 51.0107 113.488C50.747 114.122 50.3606 114.698 49.8736 115.182C49.3866 115.667 48.8087 116.05 48.1733 116.309C47.5379 116.569 46.8574 116.7 46.1713 116.695H37.1914C38.9407 116.695 40.6184 115.999 41.8554 114.76C43.0924 113.521 43.7873 111.84 43.7873 110.088C43.7873 108.335 43.0924 106.655 41.8554 105.416C40.6184 104.177 38.9407 103.48 37.1914 103.48H6.5959C4.84656 103.48 3.16886 102.784 1.93189 101.545C0.694923 100.306 0 98.6255 0 96.8732C0 95.1208 0.694923 93.4402 1.93189 92.2011C3.16886 90.9619 4.84656 90.2658 6.5959 90.2658H23.3117C25.0611 90.2658 26.7389 89.5697 27.9757 88.3306C29.2127 87.0914 29.9077 85.4109 29.9077 83.6586C29.9077 81.9061 29.2127 80.2256 27.9757 78.9865C26.7389 77.7473 25.0611 77.0512 23.3117 77.0512H6.5959C4.84656 77.0512 3.16886 76.3551 1.93189 75.116C0.694923 73.8768 0 72.1963 0 70.444C0 68.6915 0.694923 67.011 1.93189 65.7718C3.16886 64.5327 4.84656 63.8366 6.5959 63.8366H28.1267C29.8761 63.8366 31.5539 63.1405 32.7907 61.9013C34.0277 60.6622 34.7227 58.9817 34.7227 57.2293C34.7227 55.4769 34.0277 53.7963 32.7907 52.5572C31.5539 51.318 29.8761 50.6219 28.1267 50.6219H15.67C13.9206 50.6219 12.2429 49.9258 11.006 48.6867C9.76899 47.4475 9.07407 45.767 9.07407 44.0146C9.07407 42.2622 9.76899 40.5817 11.006 39.3426C12.2429 38.1034 13.9206 37.4073 15.67 37.4073H46.1713C47.5411 37.3972 48.8596 37.9286 49.8406 38.8866C50.8214 39.8444 51.3856 41.1512 51.4103 42.5232Z" fill="#BDDFE9"/>
<path opacity="0.3" d="M177.59 14.1588V83.1487C177.59 83.8338 177.724 84.512 177.987 85.1448C178.249 85.7776 178.633 86.3525 179.117 86.8363C179.6 87.3203 180.176 87.7039 180.807 87.9652C181.44 88.2265 182.117 88.3604 182.8 88.3591H191.809C190.06 88.3591 188.381 87.663 187.144 86.4238C185.907 85.1847 185.213 83.5042 185.213 81.7518C185.213 79.9994 185.907 78.3188 187.144 77.0797C188.381 75.8405 190.06 75.1444 191.809 75.1444H222.376C224.126 75.1444 225.803 74.4483 227.04 73.2092C228.277 71.97 228.971 70.2895 228.971 68.537C228.971 66.7847 228.277 65.1042 227.04 63.865C225.803 62.6259 224.126 61.9298 222.376 61.9298H205.689C203.939 61.9298 202.261 61.2337 201.024 59.9946C199.787 58.7554 199.093 57.0749 199.093 55.3224C199.093 53.5701 199.787 51.8894 201.024 50.6504C202.261 49.4113 203.939 48.7152 205.689 48.7152H222.376C224.126 48.7152 225.803 48.0191 227.04 46.7799C228.277 45.5408 228.971 43.8602 228.971 42.1078C228.971 40.3555 228.277 38.6748 227.04 37.4358C225.803 36.1966 224.126 35.5005 222.376 35.5005H200.864C199.114 35.5005 197.437 34.8044 196.2 33.5653C194.963 32.3261 194.269 30.6456 194.269 28.8931C194.269 27.1408 194.963 25.4601 196.2 24.2211C197.437 22.982 199.114 22.2859 200.864 22.2859H213.33C215.08 22.2859 216.757 21.5897 217.994 20.3506C219.231 19.1115 219.926 17.431 219.926 15.6785C219.926 13.9261 219.231 12.2456 217.994 11.0064C216.757 9.76733 215.08 9.07119 213.33 9.07119H182.8C181.44 9.06835 180.133 9.59934 179.16 10.5503C178.186 11.5013 177.621 12.7967 177.59 14.1588Z" fill="#BDDFE9"/>
</g>
<path d="M180.549 112.9C180.55 114.187 180.297 115.461 179.807 116.65C179.317 117.84 178.597 118.92 177.69 119.831C176.783 120.742 175.706 121.465 174.519 121.958C173.333 122.452 172.061 122.706 170.777 122.707H42.3173C41.3054 122.707 40.3036 122.508 39.369 122.119C38.4344 121.731 37.5853 121.162 36.8703 120.445C36.1553 119.728 35.5884 118.877 35.2022 117.94C34.8159 117.004 34.6176 116 34.6189 114.986V12.9032C34.6189 10.8579 35.43 8.8964 36.8737 7.45018C38.3174 6.00395 40.2754 5.19148 42.3173 5.19148H138.919C136.379 5.27049 133.969 6.33688 132.2 8.16479C130.431 9.99272 129.442 12.4386 129.442 14.9844C129.442 17.5304 130.431 19.9762 132.2 21.8042C133.969 23.632 136.379 24.6984 138.919 24.7775H157.359C159.899 24.8565 162.309 25.9228 164.079 27.7508C165.847 29.5786 166.836 32.0246 166.836 34.5704C166.836 37.1163 165.847 39.5622 164.079 41.3901C162.309 43.2181 159.899 44.2844 157.359 44.3634H125.501C124.218 44.3634 122.947 44.6167 121.762 45.1085C120.576 45.6004 119.499 46.3215 118.591 47.2304C117.684 48.1393 116.964 49.2183 116.473 50.406C115.982 51.5935 115.73 52.8663 115.73 54.1518C115.73 55.4371 115.982 56.71 116.473 57.8975C116.964 59.0851 117.684 60.1642 118.591 61.0731C119.499 61.982 120.576 62.703 121.762 63.195C122.947 63.6868 124.218 63.94 125.501 63.94H150.226C152.766 64.0191 155.176 65.0855 156.946 66.9133C158.714 68.7413 159.703 71.1871 159.703 73.7329C159.703 76.2789 158.714 78.7247 156.946 80.5527C155.176 82.3805 152.766 83.4469 150.226 83.526H125.501C124.192 83.4853 122.887 83.7084 121.666 84.1822C120.444 84.656 119.33 85.3709 118.389 86.2842C117.449 87.1977 116.701 88.291 116.19 89.4994C115.68 90.7079 115.417 92.0067 115.417 93.319C115.417 94.6312 115.68 95.9301 116.19 97.1385C116.701 98.3469 117.449 99.4404 118.389 100.354C119.33 101.267 120.444 101.982 121.666 102.456C122.887 102.93 124.192 103.153 125.501 103.112H170.777C173.369 103.112 175.854 104.143 177.686 105.979C179.519 107.815 180.549 110.304 180.549 112.9Z" fill="#E0F0F5"/>
<path d="M74.7222 39.9648C74.717 44.881 73.6134 49.7336 71.4926 54.1671C69.3716 58.6003 66.287 62.502 62.4649 65.5857C58.6429 68.6696 54.1802 70.8573 49.4043 71.9886C44.6283 73.1199 39.6602 73.166 34.864 72.1236L34.5814 72.0575V66.5074C27.9383 66.1737 21.5561 63.8121 16.2919 59.7397L16.0187 59.5414C15.5757 59.2111 15.1329 58.8712 14.7089 58.5125L14.5864 58.3426C11.26 53.3881 9.34172 47.6206 9.03687 41.6577C8.73203 35.6947 10.0521 29.761 12.8559 24.492C15.6596 19.223 19.8413 14.8174 24.953 11.7467C30.0649 8.67601 35.9142 7.05608 41.8746 7.06039H42.2797C43.5813 7.07822 44.8807 7.17278 46.1713 7.34356C52.3083 8.15078 58.0912 10.684 62.8494 14.6493C63.0944 14.8381 63.33 15.0458 63.5562 15.2534C67.0292 18.307 69.8194 22.0606 71.7446 26.2688C71.933 26.6747 72.112 27.09 72.2722 27.5054C73.8936 31.4582 74.7259 35.6912 74.7222 39.9648Z" fill="#BDDFE9"/>
<path d="M88.423 97.0051L82.7223 87.1129L77.9073 95.4665L74.8166 90.1051L65.1394 73.3226L55.4717 90.1051L45.7946 106.888H65.1394H71.3207L71.3113 106.897H82.7223H94.1237L88.423 97.0051Z" fill="#A8FF8C"/>
<path d="M191.819 12.9034V114.977C191.82 115.991 191.623 116.996 191.237 117.934C190.851 118.872 190.286 119.724 189.57 120.442C188.854 121.16 188.006 121.73 187.07 122.119C186.134 122.508 185.133 122.708 184.12 122.708H170.777C173.317 122.629 175.727 121.562 177.496 119.734C179.266 117.906 180.254 115.461 180.254 112.915C180.254 110.369 179.266 107.923 177.496 106.095C175.727 104.267 173.317 103.201 170.777 103.122H125.501C124.192 103.162 122.888 102.939 121.666 102.465C120.444 101.992 119.33 101.277 118.39 100.363C117.449 99.4499 116.701 98.3565 116.191 97.1481C115.68 95.9397 115.417 94.6409 115.417 93.3287C115.417 92.0164 115.68 90.7175 116.191 89.5091C116.701 88.3007 117.449 87.2073 118.39 86.2939C119.33 85.3804 120.444 84.6658 121.666 84.1919C122.888 83.7181 124.192 83.4948 125.501 83.5356H150.226C152.767 83.4566 155.176 82.3903 156.946 80.5623C158.714 78.7344 159.703 76.2884 159.703 73.7426C159.703 71.1968 158.714 68.7508 156.946 66.923C155.176 65.095 152.767 64.0286 150.226 63.9497H125.501C124.218 63.9497 122.947 63.6964 121.762 63.2045C120.576 62.7127 119.499 61.9917 118.592 61.0826C117.684 60.1737 116.965 59.0948 116.474 57.9071C115.983 56.7196 115.73 55.4468 115.73 54.1613C115.73 52.876 115.983 51.6031 116.474 50.4155C116.965 49.228 117.684 48.1489 118.592 47.24C119.499 46.3311 120.576 45.6101 121.762 45.1181C122.947 44.6263 124.218 44.3731 125.501 44.3731H157.36C159.9 44.294 162.31 43.2276 164.079 41.3998C165.847 39.5718 166.837 37.126 166.837 34.58C166.837 32.0342 165.847 29.5884 164.079 27.7604C162.31 25.9325 159.9 24.8662 157.36 24.7871H138.919C136.379 24.7081 133.969 23.6417 132.2 21.8138C130.431 19.9859 129.442 17.5399 129.442 14.9941C129.442 12.4482 130.431 10.0023 132.2 8.17442C133.969 6.34651 136.379 5.28012 138.919 5.20111H184.149C186.183 5.20859 188.133 6.02308 189.57 7.46646C191.007 8.90982 191.816 10.8646 191.819 12.9034Z" fill="#BDDFE9"/>
<path d="M72.4793 4.98404H90.7029C90.7029 5.53478 90.4844 6.06296 90.0957 6.4524C89.707 6.84184 89.1797 7.06062 88.6299 7.06062H74.5523C74.0026 7.06062 73.4753 6.84184 73.0866 6.4524C72.6977 6.06296 72.4793 5.53478 72.4793 4.98404Z" fill="white"/>
<path d="M72.4793 17.9341H90.7029C90.7029 18.4849 90.4844 19.0131 90.0957 19.4025C89.707 19.792 89.1797 20.0108 88.6299 20.0108H74.5523C74.0026 20.0108 73.4753 19.792 73.0866 19.4025C72.6977 19.0131 72.4793 18.4849 72.4793 17.9341Z" fill="white"/>
<path opacity="0.7" d="M92.7289 17.9341H110.943C110.943 18.4849 110.724 19.0131 110.336 19.4025C109.947 19.792 109.42 20.0108 108.87 20.0108H94.8019C94.252 20.0108 93.7247 19.792 93.336 19.4025C92.9471 19.0131 92.7289 18.4849 92.7289 17.9341Z" fill="white"/>
<path d="M51.4102 4.98404H69.6243C69.6243 5.53478 69.4059 6.06296 69.0172 6.4524C68.6283 6.84184 68.101 7.06062 67.5513 7.06062H53.4832C52.9333 7.06062 52.4062 6.84184 52.0173 6.4524C51.6286 6.06296 51.4102 5.53478 51.4102 4.98404Z" fill="white"/>
<path d="M23.6227 34.6132L19.3164 32.3572L14.4731 32.7914L16.7159 28.4778L16.2824 23.6262L20.598 25.8726L25.4413 25.4384L23.1893 29.7614L23.6227 34.6132Z" fill="#EEF0F1"/>
<path d="M20.4946 43.4482C21.3949 43.4482 22.1247 42.7171 22.1247 41.8151C22.1247 40.9132 21.3949 40.1823 20.4946 40.1823C19.5943 40.1823 18.8644 40.9132 18.8644 41.8151C18.8644 42.7171 19.5943 43.4482 20.4946 43.4482Z" fill="#EEF0F1"/>
<path d="M106.863 5.50303H98.9384C98.6884 5.50303 98.4489 5.40358 98.2722 5.22656C98.0954 5.04954 97.9962 4.80946 97.9962 4.55912C97.9962 4.30878 98.0954 4.0687 98.2722 3.89168C98.4489 3.71466 98.6884 3.61522 98.9384 3.61522H106.835C107.084 3.61522 107.324 3.71466 107.501 3.89168C107.678 4.0687 107.777 4.30878 107.777 4.55912C107.777 4.80946 107.678 5.04954 107.501 5.22656C107.324 5.40358 107.084 5.50303 106.835 5.50303H106.863Z" fill="#183154"/>
<path d="M100.314 123H42.5343C40.2483 122.99 38.0592 122.074 36.4454 120.452C34.8316 118.83 33.9243 116.634 33.9219 114.345V12.2708C33.9244 9.97598 34.8356 7.77584 36.4554 6.15314C38.0753 4.53044 40.2716 3.61772 42.5624 3.61522H91.4663C91.7163 3.61522 91.9559 3.71466 92.1326 3.89168C92.3093 4.0687 92.4086 4.30878 92.4086 4.55912C92.4086 4.80946 92.3093 5.04954 92.1326 5.22656C91.9559 5.40358 91.7163 5.50303 91.4663 5.50303H42.5343C40.7482 5.51299 39.0383 6.23013 37.778 7.49799C36.5176 8.76584 35.8089 10.4815 35.8064 12.2708V114.345C35.8089 116.139 36.5216 117.859 37.788 119.127C39.0544 120.396 40.7714 121.11 42.5624 121.112H100.343C100.592 121.112 100.832 121.212 101.009 121.389C101.186 121.566 101.285 121.806 101.285 122.056C101.285 122.306 101.186 122.547 101.009 122.724C100.832 122.901 100.592 123 100.343 123H100.314Z" fill="#183154"/>
<path d="M116.003 123H105.638C105.388 123 105.149 122.901 104.972 122.724C104.795 122.547 104.696 122.307 104.696 122.056C104.696 121.806 104.795 121.566 104.972 121.389C105.149 121.212 105.388 121.112 105.638 121.112H116.003C116.253 121.112 116.493 121.212 116.669 121.389C116.846 121.566 116.945 121.806 116.945 122.056C116.945 122.307 116.846 122.547 116.669 122.724C116.493 122.901 116.253 123 116.003 123Z" fill="#183154"/>
<path d="M120.752 123H119.979C119.729 123 119.49 122.901 119.313 122.724C119.136 122.547 119.037 122.307 119.037 122.056C119.037 121.806 119.136 121.566 119.313 121.389C119.49 121.212 119.729 121.112 119.979 121.112H120.752C121.002 121.112 121.241 121.212 121.418 121.389C121.595 121.566 121.694 121.806 121.694 122.056C121.694 122.307 121.595 122.547 121.418 122.724C121.241 122.901 121.002 123 120.752 123Z" fill="#183154"/>
<path d="M184.336 123H125.227C124.978 123 124.738 122.901 124.561 122.724C124.384 122.546 124.285 122.306 124.285 122.056C124.285 121.806 124.384 121.566 124.561 121.389C124.738 121.212 124.978 121.112 125.227 121.112H184.336C186.129 121.112 187.846 120.399 189.113 119.13C190.38 117.861 191.093 116.139 191.093 114.344V60.1928C191.093 59.9423 191.191 59.7023 191.369 59.5253C191.544 59.3482 191.784 59.2488 192.034 59.2488C192.284 59.2488 192.524 59.3482 192.701 59.5253C192.877 59.7023 192.977 59.9423 192.977 60.1928V114.344C192.974 116.639 192.063 118.839 190.443 120.462C188.823 122.085 186.627 122.998 184.336 123Z" fill="#183154"/>
<path d="M192.034 56.0584C191.784 56.0584 191.546 55.959 191.369 55.7819C191.191 55.605 191.093 55.3649 191.093 55.1146V53.6231C191.093 53.3728 191.191 53.1327 191.369 52.9558C191.546 52.7787 191.784 52.6793 192.034 52.6793C192.284 52.6793 192.524 52.7787 192.701 52.9558C192.879 53.1327 192.977 53.3728 192.977 53.6231V55.1146C192.977 55.3649 192.879 55.605 192.701 55.7819C192.524 55.959 192.284 56.0584 192.034 56.0584Z" fill="#183154"/>
<path d="M192.034 49.6116C191.784 49.6116 191.546 49.5122 191.369 49.3352C191.191 49.1582 191.093 48.9181 191.093 48.6678V40.7202C191.093 40.4697 191.191 40.2297 191.369 40.0527C191.546 39.8756 191.784 39.7762 192.034 39.7762C192.284 39.7762 192.524 39.8756 192.701 40.0527C192.879 40.2297 192.977 40.4697 192.977 40.7202V48.6678C192.977 48.9181 192.879 49.1582 192.701 49.3352C192.524 49.5122 192.284 49.6116 192.034 49.6116Z" fill="#183154"/>
<path d="M192.034 34.3016C191.784 34.3016 191.544 34.202 191.369 34.0251C191.191 33.848 191.093 33.6079 191.093 33.3576V12.2708C191.093 10.4759 190.38 8.75447 189.113 7.48526C187.846 6.21605 186.129 5.50303 184.336 5.50303H117.501C117.251 5.50303 117.011 5.40358 116.835 5.22656C116.658 5.04954 116.559 4.80946 116.559 4.55912C116.559 4.30878 116.658 4.0687 116.835 3.89168C117.011 3.71466 117.251 3.61522 117.501 3.61522H184.336C186.627 3.61772 188.823 4.53044 190.443 6.15314C192.063 7.77584 192.974 9.97598 192.977 12.2708V33.3576C192.977 33.6079 192.877 33.848 192.701 34.0251C192.524 34.202 192.284 34.3016 192.034 34.3016Z" fill="#183154"/>
<path d="M112.13 5.50303H110.99C110.74 5.50303 110.501 5.40358 110.324 5.22656C110.147 5.04954 110.048 4.80946 110.048 4.55912C110.048 4.30878 110.147 4.0687 110.324 3.89168C110.501 3.71466 110.74 3.61522 110.99 3.61522H112.13C112.38 3.61522 112.62 3.71466 112.797 3.89168C112.973 4.0687 113.073 4.30878 113.073 4.55912C113.073 4.80946 112.973 5.04954 112.797 5.22656C112.62 5.40358 112.38 5.50303 112.13 5.50303Z" fill="#183154"/>
<path d="M67.8341 13.3467C68.9373 13.3467 69.8317 12.4508 69.8317 11.3456C69.8317 10.2405 68.9373 9.34456 67.8341 9.34456C66.7308 9.34456 65.8364 10.2405 65.8364 11.3456C65.8364 12.4508 66.7308 13.3467 67.8341 13.3467Z" fill="#8BBBC6"/>
<path d="M73.5819 13.3467C74.6852 13.3467 75.5794 12.4508 75.5794 11.3456C75.5794 10.2405 74.6852 9.34456 73.5819 9.34456C72.4786 9.34456 71.5843 10.2405 71.5843 11.3456C71.5843 12.4508 72.4786 13.3467 73.5819 13.3467Z" fill="#8BBBC6"/>
<path d="M79.5936 13.3467C80.6969 13.3467 81.5911 12.4508 81.5911 11.3456C81.5911 10.2405 80.6969 9.34456 79.5936 9.34456C78.4903 9.34456 77.596 10.2405 77.596 11.3456C77.596 12.4508 78.4903 13.3467 79.5936 13.3467Z" fill="#8BBBC6"/>
<path d="M67.966 13.8094C67.478 13.8094 67.0011 13.6646 66.5954 13.3933C66.1896 13.122 65.8731 12.7363 65.686 12.285C65.4989 11.8336 65.4494 11.3369 65.544 10.8574C65.6384 10.3779 65.8727 9.93727 66.217 9.59104C66.5613 9.24481 67.0003 9.00853 67.4786 8.91205C67.9569 8.81556 68.4529 8.86319 68.9041 9.04892C69.3554 9.23465 69.7417 9.55016 70.014 9.9556C70.2864 10.361 70.4329 10.8382 70.4347 11.327C70.436 11.6525 70.373 11.9751 70.2494 12.2762C70.126 12.5774 69.9443 12.8511 69.715 13.0817C69.4856 13.3124 69.213 13.4954 68.9129 13.6203C68.6127 13.7451 68.291 13.8094 67.966 13.8094ZM67.966 9.81671C67.6633 9.81673 67.3674 9.90692 67.116 10.0758C66.8646 10.2447 66.6689 10.4846 66.554 10.7651C66.439 11.0456 66.4099 11.354 66.4703 11.6512C66.5307 11.9483 66.678 12.2207 66.8934 12.4338C67.1087 12.6469 67.3826 12.791 67.6799 12.8478C67.9771 12.9047 68.2847 12.8717 68.5633 12.7531C68.8419 12.6344 69.079 12.4355 69.2444 12.1816C69.4099 11.9276 69.4961 11.6302 69.4924 11.327C69.485 10.9255 69.3213 10.5428 69.036 10.2606C68.7509 9.9784 68.3669 9.8191 67.966 9.81671Z" fill="#183154"/>
<path d="M73.7137 13.8094C73.2258 13.8094 72.7488 13.6646 72.3431 13.3933C71.9373 13.122 71.6208 12.7363 71.4338 12.285C71.2467 11.8336 71.1973 11.3369 71.2917 10.8574C71.3863 10.3779 71.6204 9.93727 71.9647 9.59104C72.309 9.24481 72.748 9.00853 73.2263 8.91205C73.7046 8.81556 74.2007 8.86319 74.652 9.04892C75.1031 9.23465 75.4894 9.55016 75.7618 9.9556C76.0343 10.361 76.1805 10.8382 76.1824 11.327C76.1837 11.6525 76.1207 11.9751 75.9973 12.2762C75.8737 12.5774 75.6921 12.8511 75.4627 13.0817C75.2333 13.3124 74.9607 13.4954 74.6606 13.6203C74.3606 13.7451 74.0387 13.8094 73.7137 13.8094ZM73.7137 9.81671C73.411 9.81673 73.1151 9.90692 72.8637 10.0758C72.6123 10.2447 72.4167 10.4846 72.3017 10.7651C72.1867 11.0456 72.1576 11.354 72.2181 11.6512C72.2786 11.9483 72.4258 12.2207 72.6411 12.4338C72.8566 12.6469 73.1303 12.791 73.4276 12.8478C73.725 12.9047 74.0324 12.8717 74.311 12.7531C74.5896 12.6344 74.8267 12.4355 74.9921 12.1816C75.1576 11.9276 75.2438 11.6302 75.2401 11.327C75.2328 10.9255 75.069 10.5428 74.7838 10.2606C74.4986 9.9784 74.1146 9.8191 73.7137 9.81671Z" fill="#183154"/>
<path d="M79.7254 13.8094C79.2376 13.8094 78.7606 13.6646 78.3548 13.3933C77.9491 13.122 77.6327 12.7363 77.4456 12.285C77.2584 11.8336 77.209 11.3369 77.3034 10.8574C77.398 10.3779 77.6321 9.93727 77.9764 9.59104C78.3207 9.24481 78.7597 9.00853 79.238 8.91205C79.7163 8.81556 80.2124 8.86319 80.6637 9.04892C81.115 9.23465 81.5011 9.55016 81.7736 9.9556C82.046 10.361 82.1923 10.8382 82.1941 11.327C82.1967 11.6529 82.1346 11.976 82.0116 12.2777C81.8884 12.5794 81.7069 12.8537 81.4773 13.0846C81.2476 13.3155 80.9746 13.4984 80.6738 13.6228C80.3731 13.7473 80.0507 13.8107 79.7254 13.8094ZM79.7254 9.81671C79.4227 9.81673 79.1268 9.90692 78.8754 10.0758C78.624 10.2447 78.4284 10.4846 78.3134 10.7651C78.1984 11.0456 78.1694 11.354 78.2298 11.6512C78.2903 11.9483 78.4376 12.2207 78.6528 12.4338C78.8683 12.6469 79.142 12.791 79.4393 12.8479C79.7367 12.9047 80.0441 12.8717 80.3227 12.7531C80.6013 12.6344 80.8384 12.4355 81.0038 12.1816C81.1693 11.9276 81.2557 11.6302 81.2518 11.327C81.247 10.9247 81.084 10.5406 80.7981 10.2579C80.5124 9.9752 80.127 9.81669 79.7254 9.81671Z" fill="#183154"/>
<path d="M170.551 39.0682H113.44C112.94 39.0682 112.461 38.8694 112.107 38.5153C111.754 38.1613 111.555 37.6812 111.555 37.1805C111.555 36.6797 111.754 36.1996 112.107 35.8456C112.461 35.4915 112.94 35.2927 113.44 35.2927H170.551C171.05 35.2927 171.53 35.4915 171.883 35.8456C172.237 36.1996 172.436 36.6797 172.436 37.1805C172.436 37.6812 172.237 38.1613 171.883 38.5153C171.53 38.8694 171.05 39.0682 170.551 39.0682Z" fill="#8BBBC6"/>
<path d="M132.86 48.0354H113.44C112.94 48.0354 112.461 47.8364 112.107 47.4824C111.754 47.1283 111.555 46.6482 111.555 46.1475C111.555 45.6469 111.754 45.1667 112.107 44.8126C112.461 44.4586 112.94 44.2597 113.44 44.2597H132.86C133.36 44.2597 133.839 44.4586 134.193 44.8126C134.546 45.1667 134.745 45.6469 134.745 46.1475C134.745 46.6482 134.546 47.1283 134.193 47.4824C133.839 47.8364 133.36 48.0354 132.86 48.0354Z" fill="#8BBBC6"/>
<path d="M132.86 68.4426H113.44C112.94 68.4426 112.461 68.2437 112.107 67.8897C111.754 67.5357 111.555 67.0555 111.555 66.5549C111.555 66.0542 111.754 65.574 112.107 65.2199C112.461 64.8659 112.94 64.667 113.44 64.667H132.86C133.36 64.667 133.839 64.8659 134.193 65.2199C134.546 65.574 134.745 66.0542 134.745 66.5549C134.745 67.0555 134.546 67.5357 134.193 67.8897C133.839 68.2437 133.36 68.4426 132.86 68.4426Z" fill="#389D9C"/>
<path d="M158.81 57.0024H147.861C147.361 57.0024 146.881 56.8036 146.529 56.4494C146.176 56.0955 145.977 55.6153 145.977 55.1146C145.977 54.6139 146.176 54.1337 146.529 53.7798C146.881 53.4256 147.361 53.2268 147.861 53.2268H158.81C159.31 53.2268 159.79 53.4256 160.143 53.7798C160.496 54.1337 160.694 54.6139 160.694 55.1146C160.694 55.6153 160.496 56.0955 160.143 56.4494C159.79 56.8036 159.31 57.0024 158.81 57.0024Z" fill="#8BBBC6"/>
<path opacity="0.8" d="M176.026 57.0024H165.077C164.577 57.0024 164.097 56.8036 163.744 56.4494C163.39 56.0955 163.191 55.6153 163.191 55.1146C163.191 54.6139 163.39 54.1337 163.744 53.7798C164.097 53.4256 164.577 53.2268 165.077 53.2268H176.026C176.526 53.2268 177.004 53.4256 177.359 53.7798C177.711 54.1337 177.91 54.6139 177.91 55.1146C177.91 55.6153 177.711 56.0955 177.359 56.4494C177.004 56.8036 176.526 57.0024 176.026 57.0024Z" fill="#8BBBC6"/>
<path d="M124.38 57.0024H113.44C112.94 57.0024 112.461 56.8036 112.107 56.4494C111.754 56.0955 111.555 55.6153 111.555 55.1146C111.555 54.6139 111.754 54.1337 112.107 53.7798C112.461 53.4256 112.94 53.2268 113.44 53.2268H124.38C124.879 53.2268 125.359 53.4256 125.712 53.7798C126.066 54.1337 126.264 54.6139 126.264 55.1146C126.264 55.6153 126.066 56.0955 125.712 56.4494C125.359 56.8036 124.879 57.0024 124.38 57.0024Z" fill="#8BBBC6"/>
<path opacity="0.3" d="M141.595 57.0024H130.655C130.155 57.0024 129.676 56.8036 129.323 56.4494C128.969 56.0955 128.771 55.6153 128.771 55.1146C128.771 54.6139 128.969 54.1337 129.323 53.7798C129.676 53.4256 130.155 53.2268 130.655 53.2268H141.595C142.095 53.2268 142.574 53.4256 142.927 53.7798C143.281 54.1337 143.48 54.6139 143.48 55.1146C143.48 55.6153 143.281 56.0955 142.927 56.4494C142.574 56.8036 142.095 57.0024 141.595 57.0024Z" fill="#8BBBC6"/>
<path d="M170.551 78.4384H113.44C112.94 78.4384 112.461 78.2396 112.107 77.8855C111.754 77.5315 111.555 77.0514 111.555 76.5506C111.555 76.0499 111.754 75.5698 112.107 75.2158C112.461 74.8617 112.94 74.6629 113.44 74.6629H170.551C171.05 74.6629 171.53 74.8617 171.883 75.2158C172.237 75.5698 172.436 76.0499 172.436 76.5506C172.436 77.0514 172.237 77.5315 171.883 77.8855C171.53 78.2396 171.05 78.4384 170.551 78.4384Z" fill="#8BBBC6"/>
<path d="M132.86 87.4055H113.44C112.94 87.4055 112.461 87.2066 112.107 86.8526C111.754 86.4985 111.555 86.0183 111.555 85.5178C111.555 85.017 111.754 84.5369 112.107 84.1828C112.461 83.8288 112.94 83.6299 113.44 83.6299H132.86C133.36 83.6299 133.839 83.8288 134.193 84.1828C134.546 84.5369 134.745 85.017 134.745 85.5178C134.745 86.0183 134.546 86.4985 134.193 86.8526C133.839 87.2066 133.36 87.4055 132.86 87.4055Z" fill="#8BBBC6"/>
<path d="M132.86 107.813H113.44C112.94 107.813 112.461 107.614 112.107 107.26C111.754 106.906 111.555 106.426 111.555 105.925C111.555 105.424 111.754 104.944 112.107 104.59C112.461 104.236 112.94 104.037 113.44 104.037H132.86C133.36 104.037 133.839 104.236 134.193 104.59C134.546 104.944 134.745 105.424 134.745 105.925C134.745 106.426 134.546 106.906 134.193 107.26C133.839 107.614 133.36 107.813 132.86 107.813Z" fill="#389D9C"/>
<path d="M158.81 96.3727H147.861C147.361 96.3727 146.881 96.1737 146.529 95.8197C146.176 95.4656 145.977 94.9855 145.977 94.4847C145.977 93.9842 146.176 93.5039 146.529 93.1499C146.881 92.7959 147.361 92.597 147.861 92.597H158.81C159.31 92.597 159.79 92.7959 160.143 93.1499C160.496 93.5039 160.694 93.9842 160.694 94.4847C160.694 94.9855 160.496 95.4656 160.143 95.8197C159.79 96.1737 159.31 96.3727 158.81 96.3727Z" fill="#8BBBC6"/>
<path opacity="0.8" d="M176.026 96.3727H165.077C164.577 96.3727 164.097 96.1737 163.744 95.8197C163.39 95.4656 163.191 94.9855 163.191 94.4847C163.191 93.9842 163.39 93.5039 163.744 93.1499C164.097 92.7959 164.577 92.597 165.077 92.597H176.026C176.526 92.597 177.004 92.7959 177.359 93.1499C177.711 93.5039 177.91 93.9842 177.91 94.4847C177.91 94.9855 177.711 95.4656 177.359 95.8197C177.004 96.1737 176.526 96.3727 176.026 96.3727Z" fill="#8BBBC6"/>
<path d="M124.38 96.3727H113.44C112.94 96.3727 112.461 96.1737 112.107 95.8197C111.754 95.4656 111.555 94.9855 111.555 94.4847C111.555 93.9842 111.754 93.5039 112.107 93.1499C112.461 92.7959 112.94 92.597 113.44 92.597H124.38C124.879 92.597 125.359 92.7959 125.712 93.1499C126.066 93.5039 126.264 93.9842 126.264 94.4847C126.264 94.9855 126.066 95.4656 125.712 95.8197C125.359 96.1737 124.879 96.3727 124.38 96.3727Z" fill="#8BBBC6"/>
<path opacity="0.3" d="M141.595 96.3727H130.655C130.155 96.3727 129.676 96.1737 129.323 95.8197C128.969 95.4656 128.771 94.9855 128.771 94.4847C128.771 93.9842 128.969 93.5039 129.323 93.1499C129.676 92.7959 130.155 92.597 130.655 92.597H141.595C142.095 92.597 142.574 92.7959 142.927 93.1499C143.281 93.5039 143.48 93.9842 143.48 94.4847C143.48 94.9855 143.281 95.4656 142.927 95.8197C142.574 96.1737 142.095 96.3727 141.595 96.3727Z" fill="#8BBBC6"/>
<path d="M69.9073 33.6595C69.9073 37.9803 69.0576 42.2585 67.4067 46.2501C65.7559 50.2418 63.3361 53.8684 60.2859 56.9233C57.2356 59.978 53.6144 62.4008 49.6291 64.0533C45.644 65.7059 41.3729 66.5559 37.0597 66.5546C36.5791 66.5546 36.1174 66.5546 35.618 66.5546H35.3353C28.6923 66.2209 22.3101 63.8593 17.0459 59.7869L16.782 59.5886C16.292 59.2016 15.8397 58.7957 15.3499 58.3898C9.16864 52.9701 5.23904 45.4269 4.33593 37.248C3.4328 29.0691 5.6217 20.8481 10.471 14.2061C15.3203 7.56407 22.478 2.98327 30.5324 1.36697C38.587 -0.249319 46.9539 1.21623 53.9829 5.47462C54.831 5.98432 55.6507 6.53179 56.4423 7.10757L56.5647 7.19253C59.5933 9.43439 62.2189 12.1762 64.329 15.3006C66.5879 18.6448 68.2077 22.3799 69.1063 26.316C69.2006 26.7219 69.2853 27.1372 69.3607 27.5526C69.7321 29.5668 69.9152 31.6113 69.9073 33.6595Z" fill="#A8FF8C"/>
<path d="M70.2367 34.1318C70.2317 42.8553 66.7689 51.2199 60.6093 57.3865C54.4497 63.5532 46.0977 67.0174 37.3893 67.0174C37.116 67.0174 36.8333 67.0174 36.56 67.0174C36.4658 67.0174 36.3716 67.0174 36.2773 67.0174C29.6816 66.8085 23.3043 64.6 17.9878 60.6838L17.724 60.4855C17.2811 60.1552 16.8383 59.8153 16.4143 59.4568C13.7192 57.211 11.3973 54.5506 9.53571 51.5752C9.70532 51.6885 9.88435 51.7922 10.0634 51.896C11.0721 52.5147 12.1167 53.0726 13.1917 53.5668C17.4904 55.5525 22.1681 56.5799 26.9017 56.5779C30.063 56.5803 33.208 56.1256 36.2397 55.228L36.5223 55.143C42.4713 53.3234 47.7826 49.8499 51.8391 45.1264C55.8956 40.4028 58.5307 34.6232 59.4384 28.4589C59.5043 28.0436 59.5514 27.6378 59.5986 27.2225C59.7234 26.0435 59.7863 24.8589 59.787 23.6734C59.7879 21.6147 59.5954 19.5606 59.2123 17.5379C58.793 15.2981 58.1393 13.1087 57.2617 11.0062C56.8379 9.98088 56.3597 8.97893 55.8294 8.00457C55.528 7.44766 55.217 6.9002 54.8871 6.37161L54.793 6.22058C55.6748 6.76979 56.5273 7.36528 57.3466 8.00457L57.4596 8.08951C60.1941 10.2188 62.5761 12.7673 64.5171 15.6407C66.9206 19.1528 68.611 23.1041 69.4924 27.2697C69.5866 27.6756 69.6714 28.0908 69.7374 28.5061C70.0638 30.3637 70.2309 32.2457 70.2367 34.1318Z" fill="#389D9C"/>
<path d="M37.069 45.2036C36.347 45.2047 35.6484 44.9468 35.0996 44.4769L27.4296 37.8696C27.1063 37.6427 26.8341 37.3505 26.6304 37.012C26.4269 36.6735 26.2961 36.2959 26.247 35.9036C26.1977 35.5114 26.231 35.1132 26.3447 34.7346C26.4584 34.3561 26.65 34.0056 26.9071 33.7057C27.1641 33.4058 27.4811 33.1631 27.8374 32.9933C28.1939 32.8236 28.5817 32.7303 28.9763 32.7199C29.3707 32.7093 29.763 32.7815 30.128 32.9321C30.4929 33.0826 30.8223 33.308 31.095 33.5937L36.5319 38.266L44.2867 26.8636C44.4953 26.5537 44.7627 26.2881 45.0737 26.0817C45.3847 25.8753 45.7333 25.7323 46.0994 25.661C46.4656 25.5894 46.8423 25.591 47.2079 25.6654C47.5734 25.7398 47.9209 25.8855 48.2302 26.0943C48.5396 26.3033 48.8047 26.5712 49.0107 26.8827C49.2169 27.1942 49.3596 27.5433 49.4309 27.9101C49.5022 28.277 49.5006 28.6543 49.4264 29.0204C49.3522 29.3867 49.2066 29.7347 48.9982 30.0446L39.5754 43.8823C39.3342 44.2351 39.0216 44.5334 38.658 44.7578C38.2944 44.9821 37.8879 45.1276 37.4647 45.1848C37.3334 45.2004 37.2012 45.2067 37.069 45.2036Z" fill="white"/>
<g opacity="0.15">
<path opacity="0.15" d="M24.4516 21.1247C27.7613 21.1247 30.4445 18.437 30.4445 15.1214C30.4445 11.806 27.7613 9.11824 24.4516 9.11824C21.1419 9.11824 18.4587 11.806 18.4587 15.1214C18.4587 18.437 21.1419 21.1247 24.4516 21.1247Z" fill="white"/>
<path opacity="0.15" d="M17.545 26.9862C19.1999 26.9862 20.5414 25.6424 20.5414 23.9846C20.5414 22.3268 19.1999 20.983 17.545 20.983C15.8902 20.983 14.5486 22.3268 14.5486 23.9846C14.5486 25.6424 15.8902 26.9862 17.545 26.9862Z" fill="white"/>
</g>
<path d="M4.5416 39.4648C4.31296 39.4671 4.09129 39.386 3.91793 39.2367C3.74456 39.0873 3.63133 38.8799 3.59933 38.6532C3.38102 37.0609 3.27083 35.4557 3.26953 33.8486C3.26953 33.5983 3.3688 33.3582 3.54552 33.1812C3.72223 33.0042 3.9619 32.9048 4.2118 32.9048C4.46172 32.9048 4.70137 33.0042 4.87809 33.1812C5.0548 33.3582 5.15407 33.5983 5.15407 33.8486C5.1538 35.3674 5.2577 36.8844 5.46503 38.3889C5.50102 38.6297 5.44266 38.8751 5.30219 39.0739C5.1617 39.2728 4.94996 39.4093 4.7112 39.4554L4.5416 39.4648Z" fill="#183154"/>
<path d="M6.30371 46.3739C6.11278 46.3726 5.92676 46.3132 5.77026 46.2037C5.61378 46.0941 5.49421 45.9395 5.42739 45.7604C5.00361 44.6285 4.63876 43.4754 4.33435 42.3057C4.30321 42.1854 4.29605 42.0603 4.31331 41.9373C4.33056 41.8141 4.37189 41.6959 4.43492 41.5889C4.49795 41.4819 4.58143 41.3884 4.68059 41.3138C4.77976 41.2392 4.89265 41.185 5.01279 41.1541C5.13282 41.1229 5.25782 41.1158 5.38063 41.1331C5.50343 41.1504 5.62162 41.1917 5.72842 41.2549C5.83522 41.318 5.92852 41.4017 6.00299 41.5009C6.07745 41.6003 6.13162 41.7134 6.16236 41.8337C6.44901 42.9392 6.79182 44.0293 7.18943 45.0997C7.27526 45.3325 7.26603 45.5899 7.16375 45.8161C7.06145 46.0422 6.87433 46.219 6.64292 46.3078C6.53542 46.3524 6.42005 46.3749 6.30371 46.3739Z" fill="#183154"/>
<path d="M14.963 31.7908C15.338 31.7908 15.6974 31.6416 15.9626 31.3762C16.2276 31.1106 16.3764 30.7504 16.3764 30.375C16.3764 29.9994 16.2276 29.6393 15.9626 29.3738C15.6974 29.1082 15.338 28.9591 14.963 28.9591C14.5882 28.9591 14.2287 29.1082 13.9637 29.3738C13.6986 29.6393 13.5497 29.9994 13.5497 30.375C13.5497 30.7504 13.6986 31.1106 13.9637 31.3762C14.2287 31.6416 14.5882 31.7908 14.963 31.7908Z" fill="#FDFEFF"/>
<path d="M17.6864 41.9662C16.8573 39.9364 16.367 37.7839 16.2353 35.5948C16.1411 34.2355 14.021 34.226 14.1152 35.5948C14.2818 38.1566 14.8708 40.6731 15.8584 43.0421C16.3861 44.2976 18.2141 43.212 17.6864 41.9662Z" fill="#FDFEFF"/>
<path d="M192.034 18.0098H66.0154C65.7654 18.0098 65.5259 17.9102 65.3492 17.7333C65.1724 17.5563 65.0732 17.3161 65.0732 17.0658C65.0732 16.8155 65.1724 16.5754 65.3492 16.3983C65.5259 16.2214 65.7654 16.1219 66.0154 16.1219H192.034C192.284 16.1219 192.524 16.2214 192.701 16.3983C192.877 16.5754 192.977 16.8155 192.977 17.0658C192.977 17.3161 192.877 17.5563 192.701 17.7333C192.524 17.9102 192.284 18.0098 192.034 18.0098Z" fill="#183154"/>
<path d="M95.697 108.294H69.6433H44.1077L65.0827 71.8878L77.841 94.0318L82.6654 85.6688L95.697 108.294ZM72.8659 106.406H92.4367L82.6654 89.416L77.841 97.779L65.0827 75.6635L47.368 106.387H72.8753L72.8659 106.406Z" fill="#183154"/>
<path d="M37.0594 67.6873C36.56 67.6873 36.0512 67.6873 35.5612 67.6873H35.2409C28.4202 67.3432 21.8689 64.912 16.4707 60.7214L16.2352 60.5515C15.6887 60.1267 15.2082 59.7114 14.7276 59.2962C12.2288 57.0907 10.0696 54.5269 8.32015 51.6882C7.72395 50.7175 7.1798 49.7155 6.69003 48.6867C6.6245 48.5747 6.58271 48.4504 6.5673 48.3216C6.55188 48.1927 6.56317 48.062 6.60044 47.9377C6.63771 47.8134 6.70017 47.6981 6.78391 47.5991C6.86765 47.5 6.97088 47.4194 7.08715 47.3622C7.20343 47.3049 7.33024 47.2722 7.45967 47.2663C7.58908 47.2603 7.71835 47.2812 7.83937 47.3275C7.96038 47.3739 8.07057 47.4447 8.16301 47.5356C8.25547 47.6266 8.32821 47.7356 8.37668 47.856C8.84783 48.8 9.31895 49.7438 9.92201 50.6405C11.5853 53.3259 13.6402 55.747 16.0184 57.8236C16.4707 58.2106 16.9607 58.6071 17.4036 58.9941L17.6674 59.1829C22.7742 63.1531 28.9734 65.4592 35.4293 65.7901H35.6649C36.1737 65.7901 36.6072 65.7901 37.1066 65.7901C45.5546 65.7702 53.6506 62.3976 59.6216 56.411C65.5927 50.4241 68.9523 42.3111 68.9647 33.8485C68.9656 31.8466 68.7763 29.8491 68.3993 27.883C68.3239 27.4772 68.2486 27.0713 68.1543 26.6843C67.2936 22.8849 65.7377 19.2781 63.5654 16.0465L63.5089 15.9615C61.4766 12.9439 58.9467 10.2947 56.0273 8.12713L55.886 8.03273C55.0567 7.40348 54.2464 6.86545 53.4549 6.41866C48.9946 3.74265 43.949 2.1991 38.7572 1.92231C33.5654 1.64552 28.3847 2.64388 23.6662 4.83052C18.9474 7.01716 14.8336 10.3258 11.6828 14.4685C8.53198 18.6113 6.43954 23.4627 5.58757 28.6004C5.50973 28.8007 5.3659 28.9686 5.17988 29.0759C4.99387 29.1833 4.77683 29.2239 4.56468 29.1909C4.35254 29.1579 4.15801 29.0532 4.01331 28.8943C3.86861 28.7355 3.78241 28.5319 3.76898 28.3172C4.67512 22.8823 6.89143 17.7509 10.2256 13.3682C13.5597 8.98558 17.911 5.48406 22.902 3.16747C27.893 0.850872 33.3729 -0.210838 38.8662 0.0744489C44.3594 0.359736 49.7004 1.98341 54.4254 4.80459C55.264 5.31429 56.1216 5.88064 56.9507 6.48474L57.0826 6.57913C60.1743 8.85945 62.857 11.649 65.0166 14.8288L65.0826 14.9232C67.413 18.3585 69.0813 22.2002 70.0012 26.2501C70.0954 26.6654 70.1896 27.0902 70.265 27.5244C70.6566 29.6064 70.8553 31.7203 70.8586 33.839C70.8487 42.8147 67.2842 51.4199 60.9474 57.7658C54.6107 64.1116 46.0196 67.6799 37.0594 67.6873Z" fill="#183154"/>
<g opacity="0.4">
<path opacity="0.4" d="M32.894 23.0692C36.2039 23.0692 38.8869 20.3814 38.8869 17.066C38.8869 13.7505 36.2039 11.0627 32.894 11.0627C29.5843 11.0627 26.9013 13.7505 26.9013 17.066C26.9013 20.3814 29.5843 23.0692 32.894 23.0692Z" fill="white"/>
<path opacity="0.4" d="M25.9874 28.9306C27.6424 28.9306 28.9839 27.5868 28.9839 25.9291C28.9839 24.2713 27.6424 22.9275 25.9874 22.9275C24.3326 22.9275 22.9911 24.2713 22.9911 25.9291C22.9911 27.5868 24.3326 28.9306 25.9874 28.9306Z" fill="white"/>
</g>
<path d="M76.4558 76.5505C79.7344 76.5505 82.3921 73.8881 82.3921 70.604C82.3921 67.3198 79.7344 64.6574 76.4558 64.6574C73.1773 64.6574 70.5196 67.3198 70.5196 70.604C70.5196 73.8881 73.1773 76.5505 76.4558 76.5505Z" fill="#A8FF8C"/>
<path d="M76.7854 77.4944C75.425 77.4944 74.095 77.0904 72.9639 76.3332C71.8327 75.5761 70.951 74.5 70.4304 73.2408C69.9099 71.9818 69.7736 70.5963 70.039 69.2597C70.3044 67.923 70.9596 66.6953 71.9214 65.7316C72.8834 64.7679 74.1091 64.1117 75.4434 63.8459C76.7777 63.58 78.1609 63.7164 79.4177 64.2379C80.6746 64.7595 81.7489 65.6427 82.5047 66.7758C83.2606 67.9089 83.664 69.2411 83.664 70.604C83.6614 72.4307 82.936 74.1819 81.6466 75.4735C80.3571 76.7652 78.609 77.492 76.7854 77.4944ZM76.7854 65.6108C75.7973 65.6108 74.8313 65.9044 74.0098 66.4545C73.1884 67.0045 72.5483 67.7864 72.1706 68.7011C71.7929 69.6159 71.6946 70.6222 71.888 71.5929C72.0814 72.5636 72.558 73.4549 73.2574 74.1541C73.9569 74.8534 74.8476 75.3292 75.8169 75.5211C76.7863 75.7131 77.7907 75.6127 78.703 75.2325C79.6154 74.8525 80.3947 74.2098 80.9424 73.3858C81.49 72.562 81.7813 71.5937 81.7794 70.604C81.7768 69.2788 81.2497 68.0087 80.3134 67.0726C79.3771 66.1365 78.1083 65.6106 76.7854 65.6108Z" fill="#183154"/>
</g>
<defs>
<clipPath id="clip0_1_3">
<rect width="229" height="123" fill="white"/>
</clipPath>
</defs>
</svg>
