<svg width="30" height="30" viewBox="0 0 30 30" fill="none" xmlns="http://www.w3.org/2000/svg">
<path d="M2.34375 22.9688H14.0625V27.1875H9.375V29.0625H20.625V27.1875H15.9375V22.9688H27.6562C28.0291 22.9683 28.3865 22.82 28.6501 22.5564C28.9138 22.2928 29.0621 21.9353 29.0625 21.5625V4.21875C29.0621 3.84592 28.9138 3.48849 28.6501 3.22486C28.3865 2.96123 28.0291 2.81293 27.6562 2.8125H2.34375C1.97092 2.81293 1.61349 2.96123 1.34986 3.22486C1.08623 3.48849 0.937934 3.84592 0.9375 4.21875V21.5625C0.937934 21.9353 1.08623 22.2928 1.34986 22.5564C1.61349 22.82 1.97092 22.9683 2.34375 22.9688V22.9688ZM2.8125 4.6875H27.1875V21.0938H2.8125V4.6875Z" fill="#7D44F4"/>
</svg>
