<svg width="30" height="30" viewBox="0 0 30 30" fill="none" xmlns="http://www.w3.org/2000/svg">
<path d="M11.2537 7.49997C11.2537 6.50641 11.6484 5.55353 12.351 4.85097C13.0536 4.14842 14.0064 3.75372 15 3.75372C15.9936 3.75372 16.9464 4.14842 17.649 4.85097C18.3516 5.55353 18.7463 6.50641 18.7463 7.49997C18.7463 8.49354 18.3516 9.44641 17.649 10.149C16.9464 10.8515 15.9936 11.2462 15 11.2462C14.0064 11.2462 13.0536 10.8515 12.351 10.149C11.6484 9.44641 11.2537 8.49354 11.2537 7.49997ZM15 5.62872C14.7543 5.62872 14.5109 5.67712 14.2839 5.77116C14.0569 5.8652 13.8506 6.00304 13.6768 6.1768C13.5031 6.35056 13.3652 6.55685 13.2712 6.78388C13.1772 7.01091 13.1287 7.25424 13.1287 7.49997C13.1287 7.74571 13.1772 7.98904 13.2712 8.21607C13.3652 8.4431 13.5031 8.64939 13.6768 8.82315C13.8506 8.99691 14.0569 9.13474 14.2839 9.22878C14.5109 9.32282 14.7543 9.37122 15 9.37122C15.4963 9.37122 15.9722 9.17407 16.3232 8.82315C16.6741 8.47222 16.8713 7.99626 16.8713 7.49997C16.8713 7.00369 16.6741 6.52773 16.3232 6.1768C15.9722 5.82587 15.4963 5.62872 15 5.62872ZM20.625 8.43747C20.625 8.06813 20.6977 7.7024 20.8391 7.36118C20.9804 7.01995 21.1876 6.7099 21.4488 6.44874C21.7099 6.18757 22.02 5.9804 22.3612 5.83906C22.7024 5.69772 23.0682 5.62497 23.4375 5.62497C23.8068 5.62497 24.1726 5.69772 24.5138 5.83906C24.855 5.9804 25.1651 6.18757 25.4262 6.44874C25.6874 6.7099 25.8946 7.01995 26.0359 7.36118C26.1773 7.7024 26.25 8.06813 26.25 8.43747C26.25 9.18339 25.9537 9.89877 25.4262 10.4262C24.8988 10.9537 24.1834 11.25 23.4375 11.25C22.6916 11.25 21.9762 10.9537 21.4488 10.4262C20.9213 9.89877 20.625 9.18339 20.625 8.43747ZM23.4375 7.49997C23.1889 7.49997 22.9504 7.59875 22.7746 7.77456C22.5988 7.95038 22.5 8.18883 22.5 8.43747C22.5 8.68611 22.5988 8.92457 22.7746 9.10039C22.9504 9.2762 23.1889 9.37497 23.4375 9.37497C23.6861 9.37497 23.9246 9.2762 24.1004 9.10039C24.2762 8.92457 24.375 8.68611 24.375 8.43747C24.375 8.18883 24.2762 7.95038 24.1004 7.77456C23.9246 7.59875 23.6861 7.49997 23.4375 7.49997ZM6.5625 5.62497C5.81658 5.62497 5.10121 5.92129 4.57376 6.44874C4.04632 6.97618 3.75 7.69155 3.75 8.43747C3.75 9.18339 4.04632 9.89877 4.57376 10.4262C5.10121 10.9537 5.81658 11.25 6.5625 11.25C7.30842 11.25 8.02379 10.9537 8.55124 10.4262C9.07868 9.89877 9.375 9.18339 9.375 8.43747C9.375 7.69155 9.07868 6.97618 8.55124 6.44874C8.02379 5.92129 7.30842 5.62497 6.5625 5.62497ZM5.625 8.43747C5.625 8.18883 5.72377 7.95038 5.89959 7.77456C6.0754 7.59875 6.31386 7.49997 6.5625 7.49997C6.81114 7.49997 7.0496 7.59875 7.22541 7.77456C7.40123 7.95038 7.5 8.18883 7.5 8.43747C7.5 8.68611 7.40123 8.92457 7.22541 9.10039C7.0496 9.2762 6.81114 9.37497 6.5625 9.37497C6.31386 9.37497 6.0754 9.2762 5.89959 9.10039C5.72377 8.92457 5.625 8.68611 5.625 8.43747ZM8.0025 13.125C7.67251 13.6947 7.49914 14.3416 7.5 15H3.75V19.6875C3.74985 20.1539 3.86568 20.613 4.08706 21.0234C4.30845 21.4339 4.62844 21.7829 5.01823 22.039C5.40802 22.2951 5.85537 22.4502 6.32002 22.4904C6.78466 22.5306 7.25201 22.4547 7.68 22.2693C7.81875 22.89 8.03625 23.4825 8.3175 24.0356C7.60587 24.3229 6.83458 24.4311 6.07136 24.3507C5.30813 24.2703 4.57633 24.0037 3.9402 23.5744C3.30408 23.1451 2.7831 22.5661 2.42301 21.8884C2.06292 21.2107 1.87474 20.4549 1.875 19.6875V15C1.875 14.5027 2.07254 14.0258 2.42417 13.6741C2.77581 13.3225 3.25272 13.125 3.75 13.125H8.0025ZM21.6825 24.0356C22.3941 24.3229 23.1654 24.4311 23.9286 24.3507C24.6919 24.2703 25.4237 24.0037 26.0598 23.5744C26.6959 23.1451 27.2169 22.5661 27.577 21.8884C27.9371 21.2107 28.1253 20.4549 28.125 19.6875V15C28.125 14.5027 27.9275 14.0258 27.5758 13.6741C27.2242 13.3225 26.7473 13.125 26.25 13.125H21.9975C22.3162 13.6762 22.5 14.3156 22.5 15H26.25V19.6875C26.2502 20.1539 26.1343 20.613 25.9129 21.0234C25.6916 21.4339 25.3716 21.7829 24.9818 22.039C24.592 22.2951 24.1446 22.4502 23.68 22.4904C23.2153 22.5306 22.748 22.4547 22.32 22.2693C22.1794 22.89 21.9638 23.4825 21.6825 24.0356ZM11.25 13.1231C10.7527 13.1231 10.2758 13.3206 9.92418 13.6723C9.57254 14.0239 9.375 14.5008 9.375 14.9981V20.625C9.375 22.1168 9.96763 23.5476 11.0225 24.6024C12.0774 25.6573 13.5082 26.25 15 26.25C16.4918 26.25 17.9226 25.6573 18.9775 24.6024C20.0324 23.5476 20.625 22.1168 20.625 20.625V15C20.625 14.5027 20.4275 14.0258 20.0758 13.6741C19.7242 13.3225 19.2473 13.125 18.75 13.125H11.25V13.1231ZM11.25 14.9981H18.75V20.625C18.75 21.6195 18.3549 22.5734 17.6516 23.2766C16.9484 23.9799 15.9946 24.375 15 24.375C14.0054 24.375 13.0516 23.9799 12.3483 23.2766C11.6451 22.5734 11.25 21.6195 11.25 20.625V15V14.9981Z" fill="#7D44F4"/>
</svg>
