<svg width="30" height="30" viewBox="0 0 30 30" fill="none" xmlns="http://www.w3.org/2000/svg">
<path d="M15 26.25C20.5138 26.25 25 21.7638 25 16.25C25 12.0625 22.41 8.47377 18.75 6.98627V9.76502C19.8887 10.4224 20.8345 11.3676 21.4926 12.5058C22.1508 13.644 22.4982 14.9352 22.5 16.25C22.5 20.3863 19.1363 23.75 15 23.75C10.8638 23.75 7.5 20.3863 7.5 16.25C7.50166 14.9352 7.849 13.6439 8.50719 12.5057C9.16537 11.3675 10.1113 10.4223 11.25 9.76502V6.98627C7.59 8.47377 5 12.0625 5 16.25C5 21.7638 9.48625 26.25 15 26.25Z" fill="#4F4F4F"/>
<path d="M13.75 2.5H16.25V15H13.75V2.5Z" fill="#4F4F4F"/>
</svg>
